<svg width="24" height="25" viewBox="0 0 24 25" fill="none" xmlns="http://www.w3.org/2000/svg">
<g clip-path="url(#clip0_3927_6900)">
<path d="M12 0.5C5.38293 0.5 0 5.88293 0 12.5C0 19.1171 5.38293 24.5 12 24.5C18.6171 24.5 24 19.1171 24 12.5C24 5.88293 18.6171 0.5 12 0.5ZM17.25 13.4999H6.75C6.19794 13.4999 5.75006 13.0521 5.75006 12.5C5.75006 11.9479 6.19794 11.5001 6.75 11.5001H17.25C17.8021 11.5001 18.2499 11.9479 18.2499 12.5C18.2499 13.0521 17.8021 13.4999 17.25 13.4999Z" fill="#3F9DFB"/>
</g>
<defs>
<clipPath id="clip0_3927_6900">
<rect width="24" height="24" fill="white" transform="translate(0 0.5)"/>
</clipPath>
</defs>
</svg>
