<svg width="65" height="64" viewBox="0 0 65 64" fill="none" xmlns="http://www.w3.org/2000/svg">
<rect x="0.5" width="64" height="64" rx="32" fill="#E7F7EF"/>
<g clip-path="url(#clip0_4070_13891)">
<path d="M41.5961 26.8775C42.0987 25.8281 42.0274 24.5568 41.1649 23.6943L40.8058 23.3352C39.9432 22.4726 38.6377 22.3354 37.6226 22.9039C36.9081 23.304 35.3961 22.472 35.2841 21.9332C35.0491 20.8014 33.9569 20 32.745 20L32.128 20.0313C30.709 20.1034 29.5955 21.275 29.5955 22.6958C29.644 23.312 28.588 23.768 27.9746 23.3671C26.9219 22.3144 25.215 22.3144 24.1623 23.3671L23.8671 23.6624C22.9643 24.5651 22.8594 25.9346 23.4814 26.9888C23.908 27.712 23.492 28.992 22.7911 29.1643C21.5157 29.4779 20.5 30.416 20.5 31.7983V32.2446C20.5 33.4688 21.3917 34.3821 22.501 34.7756C23.652 35.1839 23.5612 36.8722 23.4432 37.0746C22.8412 38.1067 22.9825 39.4531 23.8671 40.3376L24.1624 40.6329C25.0425 41.513 26.357 41.6156 27.4099 41.0658C28.164 40.672 29.572 41.408 29.6888 42.0097C29.9152 43.1758 31.0466 44 32.2913 44H32.6754C33.8957 44 34.9289 43.1992 35.2781 42.0944C35.5065 41.3719 36.6121 40.64 37.7118 41.1027C38.7581 41.5428 40.0468 41.4237 40.8644 40.6062L41.1329 40.3376C42.1857 39.2849 42.1857 37.5781 41.1329 36.5254C40.66 36.096 41.2681 34.912 41.8043 34.9045C43.2931 34.9045 44.5 33.6975 44.5 32.2087V31.7472C44.5 30.5075 43.6771 29.4018 42.5188 29.1472C41.74 28.976 41.344 27.404 41.5961 26.8775Z" fill="#0BAA60"/>
<path d="M30.4016 35.6636L27.2734 32.5354C26.8985 32.1604 26.8985 31.5526 27.2734 31.1777C27.6483 30.8028 28.2561 30.8028 28.631 31.1777L31.0804 33.6271L36.3716 28.3359C36.7466 27.961 37.3544 27.961 37.7293 28.3359C38.1041 28.7108 38.1042 29.3186 37.7293 29.6935L31.7593 35.6636C31.3653 35.9997 30.6614 35.9517 30.4016 35.6636Z" fill="white"/>
</g>
<defs>
<clipPath id="clip0_4070_13891">
<rect width="24" height="24" fill="white" transform="translate(20.5 20)"/>
</clipPath>
</defs>
</svg>
