<svg width="24" height="25" viewBox="0 0 24 25" fill="none" xmlns="http://www.w3.org/2000/svg">
<g clip-path="url(#clip0_3927_6883)">
<path d="M2.10938 11.7969H9.1875C10.3507 11.7969 11.2969 10.8507 11.2969 9.6875V2.60938C11.2969 1.44622 10.3507 0.5 9.1875 0.5H2.10938C0.946219 0.5 0 1.44622 0 2.60938V9.6875C0 10.8507 0.946219 11.7969 2.10938 11.7969ZM3.5625 5.46875H4.96875V4.0625C4.96875 3.67386 5.28323 3.35938 5.67188 3.35938C6.06052 3.35938 6.375 3.67386 6.375 4.0625V5.46875H7.78125C8.16989 5.46875 8.48438 5.78323 8.48438 6.17188C8.48438 6.56052 8.16989 6.875 7.78125 6.875H6.375V8.28125C6.375 8.66989 6.06052 8.98438 5.67188 8.98438C5.28323 8.98438 4.96875 8.66989 4.96875 8.28125V6.875H3.5625C3.17386 6.875 2.85938 6.56052 2.85938 6.17188C2.85938 5.78323 3.17386 5.46875 3.5625 5.46875Z" fill="#3F9DFB"/>
<path d="M21.8906 0.5H14.8125C13.6493 0.5 12.7031 1.44622 12.7031 2.60938V9.6875C12.7031 10.8507 13.6493 11.7969 14.8125 11.7969H21.8906C23.0538 11.7969 24 10.8507 24 9.6875V2.60938C24 1.44622 23.0538 0.5 21.8906 0.5ZM20.4844 6.875H16.2188C15.8301 6.875 15.5156 6.56052 15.5156 6.17188C15.5156 5.78323 15.8301 5.46875 16.2188 5.46875H20.4844C20.873 5.46875 21.1875 5.78323 21.1875 6.17188C21.1875 6.56052 20.873 6.875 20.4844 6.875Z" fill="#3F9DFB"/>
<path d="M21.8906 13.2031H14.8125C13.6493 13.2031 12.7031 14.1493 12.7031 15.3125V22.3906C12.7031 23.5538 13.6493 24.5 14.8125 24.5H21.8906C23.0538 24.5 24 23.5538 24 22.3906V15.3125C24 14.1493 23.0538 13.2031 21.8906 13.2031ZM20.4844 20.9375H16.2188C15.8301 20.9375 15.5156 20.623 15.5156 20.2344C15.5156 19.8457 15.8301 19.5312 16.2188 19.5312H20.4844C20.873 19.5312 21.1875 19.8457 21.1875 20.2344C21.1875 20.623 20.873 20.9375 20.4844 20.9375ZM20.4844 18.125H16.2188C15.8301 18.125 15.5156 17.8105 15.5156 17.4219C15.5156 17.0332 15.8301 16.7188 16.2188 16.7188H20.4844C20.873 16.7188 21.1875 17.0332 21.1875 17.4219C21.1875 17.8105 20.873 18.125 20.4844 18.125Z" fill="#3F9DFB"/>
<path d="M11.2969 22.3906V15.3125C11.2969 14.1493 10.3507 13.2031 9.1875 13.2031H2.10938C0.946219 13.2031 0 14.1493 0 15.3125V22.3906C0 23.5538 0.946219 24.5 2.10938 24.5H9.1875C10.3507 24.5 11.2969 23.5538 11.2969 22.3906ZM7.66041 19.8224C7.93505 20.097 7.93505 20.542 7.66041 20.8167C7.38577 21.0913 6.94078 21.0913 6.66614 20.8167L5.67188 19.8224L4.67761 20.8167C4.40297 21.0913 3.95798 21.0913 3.68334 20.8167C3.4087 20.542 3.4087 20.097 3.68334 19.8224L4.67761 18.8281L3.68334 17.8339C3.4087 17.5592 3.4087 17.1142 3.68334 16.8396C3.95798 16.565 4.40297 16.565 4.67761 16.8396L5.67188 17.8339L6.66614 16.8396C6.94078 16.565 7.38577 16.565 7.66041 16.8396C7.93505 17.1142 7.93505 17.5592 7.66041 17.8339L6.66614 18.8281L7.66041 19.8224Z" fill="#3F9DFB"/>
</g>
<defs>
<clipPath id="clip0_3927_6883">
<rect width="24" height="24" fill="white" transform="translate(0 0.5)"/>
</clipPath>
</defs>
</svg>
