<svg width="24" height="24" viewBox="0 0 24 24" fill="none" xmlns="http://www.w3.org/2000/svg">
<path d="M21.7496 10.3803L19.9046 18.5328C19.8681 18.7034 19.7731 18.8559 19.6363 18.964C19.4994 19.0722 19.3291 19.1292 19.1546 19.1253H4.78464C4.61023 19.1292 4.43993 19.0722 4.30304 18.964C4.16615 18.8559 4.07124 18.7034 4.03464 18.5328L2.24964 10.3803C2.2196 10.2426 2.229 10.0991 2.27676 9.96649C2.32451 9.83383 2.40869 9.71732 2.51964 9.63033C2.6309 9.54302 2.76457 9.48895 2.90524 9.47435C3.0459 9.45976 3.18783 9.48523 3.31464 9.54783L7.69464 11.6703L11.3246 5.25033C11.3901 5.13491 11.4849 5.0389 11.5995 4.9721C11.7142 4.90531 11.8445 4.87012 11.9771 4.87012C12.1098 4.87012 12.2401 4.90531 12.3547 4.9721C12.4694 5.0389 12.5642 5.13491 12.6296 5.25033L16.2596 11.6778L20.6696 9.54033C20.7974 9.47263 20.9419 9.44327 21.0859 9.45581C21.2299 9.46834 21.3673 9.52222 21.4814 9.61097C21.5955 9.69972 21.6815 9.81955 21.7291 9.95604C21.7767 10.0925 21.7838 10.2399 21.7496 10.3803Z" fill="#CD192F"/>
</svg>
