<svg width="21" height="20" viewBox="0 0 21 20" fill="none" xmlns="http://www.w3.org/2000/svg">
<path d="M7.68763 12.975C6.7168 13.7375 6.0918 14.9208 6.0918 16.25V17.5H3.5918C2.90013 17.5 2.3418 16.9417 2.3418 16.25V15.4167C2.3418 13.8042 3.64596 12.5 5.25846 12.5H6.0918C6.68346 12.5 7.2293 12.675 7.68763 12.975Z" fill="#7D7AFF"/>
<path d="M15.6758 12.5C16.7113 12.5 17.5508 11.6605 17.5508 10.625C17.5508 9.58947 16.7113 8.75 15.6758 8.75C14.6402 8.75 13.8008 9.58947 13.8008 10.625C13.8008 11.6605 14.6402 12.5 15.6758 12.5Z" fill="#7D7AFF"/>
<path d="M5.67578 12.5C6.71132 12.5 7.55078 11.6605 7.55078 10.625C7.55078 9.58947 6.71132 8.75 5.67578 8.75C4.64025 8.75 3.80078 9.58947 3.80078 10.625C3.80078 11.6605 4.64025 12.5 5.67578 12.5Z" fill="#7D7AFF"/>
<path d="M19.0099 15.4167V16.25C19.0099 16.9417 18.4516 17.5 17.7599 17.5H15.2599V16.25C15.2599 14.9208 14.6349 13.7375 13.6641 12.975C14.1224 12.675 14.6682 12.5 15.2599 12.5H16.0932C17.7057 12.5 19.0099 13.8042 19.0099 15.4167Z" fill="#7D7AFF"/>
<path d="M10.6764 12.9163C11.9421 12.9163 12.9681 11.8903 12.9681 10.6247C12.9681 9.35902 11.9421 8.33301 10.6764 8.33301C9.41078 8.33301 8.38477 9.35902 8.38477 10.6247C8.38477 11.8903 9.41078 12.9163 10.6764 12.9163Z" fill="#7D7AFF"/>
<path d="M11.0924 12.917H10.2591C8.4212 12.917 6.92578 14.4124 6.92578 16.2503V17.5003C6.92578 18.1895 7.48661 18.7503 8.17578 18.7503H13.1758C13.8649 18.7503 14.4258 18.1895 14.4258 17.5003V16.2503C14.4258 14.4124 12.9304 12.917 11.0924 12.917Z" fill="#7D7AFF"/>
<path d="M16.7175 6.95203L15.7121 7.30953C15.4267 7.41078 15.1288 7.19453 15.1371 6.89162L15.1663 5.82495L14.5154 4.97912C14.3308 4.73911 14.4446 4.3887 14.735 4.30287L15.7588 4.0012L16.3621 3.12078C16.5333 2.8712 16.9017 2.8712 17.0729 3.12078L17.6763 4.0012L18.7 4.30287C18.9904 4.38828 19.1042 4.73911 18.9196 4.97912L18.2688 5.82495L18.2979 6.89162C18.3063 7.19412 18.0079 7.41078 17.7229 7.30953L16.7175 6.95203Z" fill="#7D7AFF"/>
<path d="M4.63353 6.95203L3.62811 7.30953C3.34269 7.41078 3.04478 7.19453 3.05311 6.89162L3.08228 5.82495L2.43144 4.97912C2.24686 4.73911 2.36061 4.3887 2.65103 4.30287L3.67478 4.0012L4.27811 3.12078C4.44936 2.8712 4.81769 2.8712 4.98894 3.12078L5.59228 4.0012L6.61603 4.30287C6.90644 4.38828 7.02019 4.73911 6.83561 4.97912L6.18478 5.82495L6.21394 6.89162C6.22228 7.19412 5.92394 7.41078 5.63894 7.30953L4.63353 6.95203Z" fill="#7D7AFF"/>
<path d="M10.676 6.01371L9.48393 6.43746C9.14559 6.55788 8.79226 6.30079 8.80226 5.94204L8.83684 4.67746L8.06518 3.67454C7.84643 3.38996 7.98143 2.97454 8.32559 2.87288L9.53934 2.51496L10.2548 1.47121C10.4577 1.17496 10.8948 1.17496 11.0977 1.47121L11.8131 2.51496L13.0268 2.87288C13.371 2.97454 13.506 3.38996 13.2873 3.67454L12.5156 4.67746L12.5502 5.94204C12.5602 6.30079 12.2064 6.55788 11.8685 6.43746L10.676 6.01371Z" fill="#7D7AFF"/>
</svg>
