<svg width="16" height="17" viewBox="0 0 16 17" fill="none" xmlns="http://www.w3.org/2000/svg">
<path d="M10.8594 4.57485H5.14202C4.74756 4.57485 4.42773 4.25502 4.42773 3.86056V2.4285C4.42773 1.24686 5.38895 0.285645 6.57059 0.285645H9.43087C10.6125 0.285645 11.5737 1.24686 11.5737 2.4285V3.86056C11.5737 4.25502 11.2539 4.57485 10.8594 4.57485ZM5.85631 3.14628H10.1452V2.4285C10.1452 2.03474 9.82464 1.71422 9.43087 1.71422H6.57059C6.17683 1.71422 5.85631 2.03474 5.85631 2.4285V3.14628Z" fill="#CD192F"/>
<path d="M13.7208 3.86084V15.2862C13.7208 16.0752 13.0812 16.7148 12.2922 16.7148H3.70787C2.91889 16.7148 2.2793 16.0752 2.2793 15.2862V3.86084H13.7208Z" fill="#DE6574"/>
<path d="M5.14007 13.7919C4.74561 13.7919 4.42578 13.4721 4.42578 13.0776V7.49798C4.42578 7.10352 4.74561 6.78369 5.14007 6.78369C5.53453 6.78369 5.85435 7.10352 5.85435 7.49798V13.0776C5.85435 13.4721 5.53453 13.7919 5.14007 13.7919Z" fill="white"/>
<path d="M7.99944 13.7919C7.60498 13.7919 7.28516 13.4721 7.28516 13.0776V7.49798C7.28516 7.10352 7.60498 6.78369 7.99944 6.78369C8.3939 6.78369 8.71373 7.10352 8.71373 7.49798V13.0776C8.71373 13.4721 8.3939 13.7919 7.99944 13.7919Z" fill="white"/>
<path d="M10.8608 13.7919C10.4663 13.7919 10.1465 13.4721 10.1465 13.0776V7.49798C10.1465 7.10352 10.4663 6.78369 10.8608 6.78369C11.2552 6.78369 11.5751 7.10352 11.5751 7.49798V13.0776C11.5751 13.4721 11.2552 13.7919 10.8608 13.7919Z" fill="white"/>
<path d="M14.8803 4.57506H1.12054C0.726074 4.57506 0.40625 4.25523 0.40625 3.86077C0.40625 3.46631 0.726074 3.14648 1.12054 3.14648H14.8803C15.2748 3.14648 15.5946 3.46631 15.5946 3.86077C15.5946 4.25523 15.2748 4.57506 14.8803 4.57506Z" fill="#CD192F"/>
</svg>
