<svg width="20" height="21" viewBox="0 0 20 21" fill="none" xmlns="http://www.w3.org/2000/svg">
<path fill-rule="evenodd" clip-rule="evenodd" d="M10.4688 11.1408V7.29639C10.4688 7.03764 10.2588 6.82764 10 6.82764C9.74125 6.82764 9.53125 7.03764 9.53125 7.29639V11.1408C9.53125 11.3995 9.74125 11.6095 10 11.6095C10.2588 11.6095 10.4688 11.3995 10.4688 11.1408Z" fill="#F98E71"/>
<path fill-rule="evenodd" clip-rule="evenodd" d="M9.76596 10.7352L7.20283 12.2146C6.97908 12.3439 6.90221 12.6308 7.03158 12.8552C7.16033 13.0789 7.44783 13.1558 7.67158 13.0264L10.2347 11.5471C10.4585 11.4177 10.5353 11.1308 10.4066 10.9064C10.2772 10.6827 9.98971 10.6058 9.76596 10.7352Z" fill="#F98E71"/>
<path fill-rule="evenodd" clip-rule="evenodd" d="M12.6548 10.132C11.6098 12.2226 9.84352 15.7551 8.87914 17.6839C8.66102 18.1195 8.68414 18.6376 8.94039 19.052C9.19664 19.4664 9.64977 19.7189 10.1366 19.7189H17.6885C18.176 19.7189 18.6285 19.4664 18.8848 19.052C19.141 18.6376 19.1641 18.1195 18.9466 17.6839C17.9823 15.7551 16.216 12.2226 15.1704 10.132C14.9323 9.65574 14.4454 9.35449 13.9129 9.35449C13.3804 9.35449 12.8929 9.65574 12.6548 10.132ZM13.8716 17.0289C14.1298 17.0289 14.3404 17.2389 14.3404 17.4976C14.3404 17.7564 14.1298 17.9664 13.8716 17.9664C13.6129 17.9664 13.4029 17.7564 13.4029 17.4976C13.4029 17.2389 13.6129 17.0289 13.8716 17.0289ZM13.4029 12.9664V16.0957C13.4029 16.3545 13.6129 16.5645 13.8716 16.5645C14.1298 16.5645 14.3404 16.3545 14.3404 16.0957V12.9664C14.3404 12.7076 14.1298 12.4976 13.8716 12.4976C13.6129 12.4976 13.4029 12.7076 13.4029 12.9664Z" fill="#F98E71"/>
<path fill-rule="evenodd" clip-rule="evenodd" d="M8.11602 19.4991C7.71477 18.816 7.68539 17.9748 8.04039 17.2641L8.43039 16.4841C5.77539 15.7891 3.81414 13.3716 3.81414 10.4998C3.81414 7.08602 6.58602 4.31414 9.99977 4.31414C13.2554 4.31414 15.9273 6.83539 16.1679 10.0298L18.3385 14.3716C18.8866 13.1948 19.1929 11.8829 19.1929 10.4998C19.1929 5.42602 15.0735 1.30664 9.99977 1.30664C4.92602 1.30664 0.806641 5.42602 0.806641 10.4998C0.806641 14.9279 3.94477 18.6291 8.11602 19.4991Z" fill="#F98E71"/>
</svg>
