<svg width="21" height="20" viewBox="0 0 21 20" fill="none" xmlns="http://www.w3.org/2000/svg">
<path d="M13.1484 13.4375C13.1484 12.8966 13.1484 11.25 14.7109 11.25H17.8359V9.375C17.8359 8.51344 17.135 7.8125 16.2734 7.8125H2.83594C1.97438 7.8125 1.27344 8.51344 1.27344 9.375V17.5C1.27344 18.3616 1.97438 19.0625 2.83594 19.0625H16.2734C17.135 19.0625 17.8359 18.3616 17.8359 17.5V15.625H14.7109C13.1484 15.625 13.1484 13.9784 13.1484 13.4375Z" fill="#CD192F"/>
<path d="M13.7727 7.18729V5.29292C13.7727 4.97011 13.6043 4.67729 13.3221 4.50979C13.0296 4.33604 12.6765 4.33011 12.378 4.49292L6.97461 7.18729H13.7727Z" fill="#CD192F"/>
<path d="M15.6484 14.0625C15.9936 14.0625 16.2734 13.7827 16.2734 13.4375C16.2734 13.0923 15.9936 12.8125 15.6484 12.8125C15.3033 12.8125 15.0234 13.0923 15.0234 13.4375C15.0234 13.7827 15.3033 14.0625 15.6484 14.0625Z" fill="#CD192F"/>
<path d="M10.9601 4.50248V3.17217C10.9601 2.69686 10.6676 2.39498 10.3941 2.27092C10.0623 2.1203 9.69852 2.17592 9.42102 2.41936L3.97852 7.18811H5.57414L10.9601 4.50248Z" fill="#CD192F"/>
<path d="M18.4609 11.875H14.7109C14.1481 11.875 13.7734 12.1409 13.7734 13.4375C13.7734 14.7341 14.1481 15 14.7109 15H18.4609C18.9778 15 19.3984 14.5794 19.3984 14.0625V12.8125C19.3984 12.2956 18.9778 11.875 18.4609 11.875ZM15.6484 14.6875C14.9591 14.6875 14.3984 14.1269 14.3984 13.4375C14.3984 12.7481 14.9591 12.1875 15.6484 12.1875C16.3378 12.1875 16.8984 12.7481 16.8984 13.4375C16.8984 14.1269 16.3378 14.6875 15.6484 14.6875Z" fill="#CD192F"/>
<path d="M19.6419 2.74961L18.2044 0.815859C18.0181 0.565234 17.6425 0.565234 17.4562 0.816172L16.0275 2.74023C15.8853 2.88242 15.9859 3.12523 16.1869 3.12523H16.8925C17.0834 4.06148 16.6628 5.01648 15.8434 5.50805L15.6484 5.62523L16.8984 6.56273L16.9534 6.52617C18.0903 5.76805 18.7734 4.4918 18.7734 3.12523H19.4862C19.6825 3.12523 19.7806 2.88836 19.6419 2.74961Z" fill="#CD192F"/>
</svg>
