<svg width="20" height="21" viewBox="0 0 20 21" fill="none" xmlns="http://www.w3.org/2000/svg">
<path d="M16.25 11.125H8.75C8.41848 11.125 8.10054 11.2567 7.86612 11.4911C7.6317 11.7255 7.5 12.0435 7.5 12.375V13H17.5V12.375C17.5 12.0435 17.3683 11.7255 17.1339 11.4911C16.8995 11.2567 16.5815 11.125 16.25 11.125Z" fill="#F98E71"/>
<path d="M7.5 18C7.5 18.3315 7.6317 18.6495 7.86612 18.8839C8.10054 19.1183 8.41848 19.25 8.75 19.25H16.25C16.5815 19.25 16.8995 19.1183 17.1339 18.8839C17.3683 18.6495 17.5 18.3315 17.5 18V14.25H7.5V18ZM13.75 16.125H15C15.1658 16.125 15.3247 16.1908 15.4419 16.3081C15.5592 16.4253 15.625 16.5842 15.625 16.75C15.625 16.9158 15.5592 17.0747 15.4419 17.1919C15.3247 17.3092 15.1658 17.375 15 17.375H13.75C13.5842 17.375 13.4253 17.3092 13.3081 17.1919C13.1908 17.0747 13.125 16.9158 13.125 16.75C13.125 16.5842 13.1908 16.4253 13.3081 16.3081C13.4253 16.1908 13.5842 16.125 13.75 16.125Z" fill="#F98E71"/>
<path d="M12.5 4.875H15L11.875 1.75V4.25C11.875 4.41576 11.9408 4.57473 12.0581 4.69194C12.1753 4.80915 12.3342 4.875 12.5 4.875Z" fill="#F98E71"/>
<path d="M8.75 9.875H15V6.125H12.5C12.0027 6.125 11.5258 5.92746 11.1742 5.57583C10.8225 5.22419 10.625 4.74728 10.625 4.25V1.75H3.75C3.41848 1.75 3.10054 1.8817 2.86612 2.11612C2.6317 2.35054 2.5 2.66848 2.5 3V18C2.5 18.3315 2.6317 18.6495 2.86612 18.8839C3.10054 19.1183 3.41848 19.25 3.75 19.25H6.6C6.37278 18.8725 6.25185 18.4406 6.25 18V12.375C6.25 11.712 6.51339 11.0761 6.98223 10.6072C7.45107 10.1384 8.08696 9.875 8.75 9.875Z" fill="#F98E71"/>
</svg>
