<svg width="20" height="19" viewBox="0 0 20 19" fill="none" xmlns="http://www.w3.org/2000/svg">
<path d="M5.0458 14.0846L3.11252 16.0179C3.05392 16.0764 2.97445 16.1094 2.89158 16.1094C2.88806 16.1094 2.88455 16.1094 2.88103 16.1094C2.83824 16.1079 2.7962 16.0977 2.75752 16.0793C2.71884 16.061 2.68435 16.0348 2.65619 16.0026C1.55579 14.7409 0.841836 13.1892 0.599592 11.5327C0.357347 9.87616 0.597057 8.18494 1.29009 6.661C1.98312 5.13707 3.10018 3.84484 4.50784 2.93866C5.9155 2.03248 7.55426 1.55066 9.22838 1.55074C9.31126 1.55074 9.39074 1.58367 9.44935 1.64227C9.50795 1.70088 9.54088 1.78036 9.54088 1.86324V4.5882C9.54088 4.67108 9.50795 4.75057 9.44935 4.80917C9.39074 4.86778 9.31126 4.9007 9.22838 4.9007C6.26744 4.9007 3.85845 7.31012 3.85845 10.2718C3.85913 11.5085 4.28588 12.7072 5.06685 13.6661C5.11581 13.726 5.14076 13.802 5.13687 13.8794C5.13298 13.9567 5.10053 14.0298 5.0458 14.0846ZM17.6356 9.95918H14.9108C14.8279 9.95918 14.7484 9.9921 14.6898 10.0507C14.6312 10.1093 14.5983 10.1888 14.5983 10.2717C14.5983 13.2326 12.1894 15.6416 9.22838 15.6416C7.99157 15.6406 6.79289 15.2134 5.83412 14.4321C5.77414 14.3831 5.6981 14.3581 5.62075 14.362C5.5434 14.3659 5.47025 14.3984 5.41549 14.4532L3.48111 16.3875C3.45082 16.4178 3.42708 16.454 3.41137 16.4939C3.39566 16.5337 3.3883 16.5764 3.38977 16.6192C3.39123 16.662 3.40149 16.7041 3.41989 16.7427C3.43829 16.7814 3.46445 16.8159 3.49674 16.8441C4.75846 17.9443 6.31019 18.658 7.96663 18.9002C9.62306 19.1423 11.3142 18.9025 12.838 18.2095C14.3619 17.5165 15.654 16.3995 16.5602 14.9919C17.4664 13.5844 17.9483 11.9457 17.9483 10.2717C17.9483 10.2306 17.9402 10.19 17.9245 10.1521C17.9088 10.1142 17.8858 10.0797 17.8568 10.0507C17.8277 10.0217 17.7933 9.99866 17.7554 9.98295C17.7174 9.96725 17.6768 9.95917 17.6358 9.95918H17.6356ZM19.4897 9.08918C19.2225 6.77358 18.1801 4.61639 16.5319 2.96815C14.8837 1.3199 12.7265 0.277494 10.4109 0.0103113C10.3671 0.00532532 10.3228 0.00963847 10.2809 0.0229681C10.2389 0.0362976 10.2002 0.0583428 10.1674 0.0876591C10.1346 0.116975 10.1083 0.152901 10.0903 0.193082C10.0723 0.233263 10.063 0.276793 10.063 0.320819V4.70441C10.063 4.77641 10.0878 4.84619 10.1334 4.90197C10.1789 4.95775 10.2423 4.9961 10.3128 5.01055C11.3418 5.22052 12.2865 5.72843 13.0291 6.4711C13.7717 7.21376 14.2796 8.15839 14.4895 9.18746C14.504 9.25797 14.5423 9.32132 14.5981 9.36681C14.6539 9.41231 14.7237 9.43715 14.7956 9.43715H19.1793C19.2233 9.43715 19.2668 9.42785 19.307 9.40986C19.3472 9.39186 19.3831 9.36558 19.4124 9.33274C19.4418 9.29989 19.4638 9.26122 19.4771 9.21926C19.4905 9.1773 19.4948 9.133 19.4898 9.08926L19.4897 9.08918ZM7.84724 12.6863L11.1136 8.22535C11.1383 8.19227 11.1561 8.15463 11.1661 8.11461C11.1762 8.07459 11.1782 8.03299 11.172 7.99219C11.1659 7.95139 11.1517 7.91222 11.1304 7.87692C11.109 7.84162 11.0809 7.8109 11.0476 7.78652C11.0143 7.76215 10.9766 7.74461 10.9365 7.73492C10.8964 7.72522 10.8547 7.72356 10.814 7.73003C10.7732 7.7365 10.7342 7.75098 10.6991 7.77262C10.6639 7.79426 10.6334 7.82265 10.6094 7.85613L7.34299 12.3171C7.31834 12.3502 7.30049 12.3878 7.29046 12.4278C7.28044 12.4678 7.27843 12.5094 7.28457 12.5502C7.2907 12.591 7.30485 12.6302 7.32621 12.6655C7.34756 12.7008 7.37569 12.7315 7.40898 12.7559C7.44226 12.7803 7.48005 12.7978 7.52014 12.8075C7.56024 12.8172 7.60187 12.8189 7.64261 12.8124C7.68335 12.8059 7.72241 12.7914 7.75754 12.7698C7.79266 12.7482 7.82315 12.7198 7.84724 12.6863ZM8.53318 9.38808V8.63418C8.53398 8.50997 8.51021 8.38682 8.46323 8.27184C8.41625 8.15685 8.34699 8.05229 8.25944 7.96417C8.17189 7.87606 8.06778 7.80613 7.95309 7.75841C7.83841 7.71069 7.71542 7.68612 7.59121 7.68612C7.46699 7.68612 7.34401 7.71069 7.22932 7.75841C7.11464 7.80613 7.01053 7.87606 6.92298 7.96417C6.83543 8.05229 6.76617 8.15685 6.71919 8.27184C6.67221 8.38682 6.64844 8.50997 6.64924 8.63418V9.38808C6.64844 9.5123 6.67221 9.63544 6.71919 9.75043C6.76617 9.86542 6.83543 9.96998 6.92298 10.0581C7.01053 10.1462 7.11464 10.2161 7.22932 10.2639C7.34401 10.3116 7.46699 10.3361 7.59121 10.3361C7.71542 10.3361 7.83841 10.3116 7.95309 10.2639C8.06778 10.2161 8.17189 10.1462 8.25944 10.0581C8.34699 9.96998 8.41625 9.86542 8.46323 9.75043C8.51021 9.63544 8.53398 9.5123 8.53318 9.38808ZM7.90818 8.63418V9.38808C7.90865 9.43001 7.90079 9.4716 7.88507 9.51047C7.86935 9.54933 7.84608 9.58469 7.8166 9.6145C7.78712 9.64431 7.75202 9.66798 7.71333 9.68413C7.67464 9.70028 7.63313 9.7086 7.59121 9.7086C7.54928 9.7086 7.50778 9.70028 7.46909 9.68413C7.4304 9.66798 7.3953 9.64431 7.36582 9.6145C7.33634 9.58469 7.31307 9.54933 7.29735 9.51047C7.28163 9.4716 7.27377 9.43001 7.27424 9.38808V8.63418C7.27377 8.59226 7.28163 8.55066 7.29735 8.51179C7.31307 8.47293 7.33634 8.43757 7.36582 8.40776C7.3953 8.37795 7.4304 8.35429 7.46909 8.33813C7.50778 8.32198 7.54928 8.31367 7.59121 8.31367C7.63313 8.31367 7.67464 8.32198 7.71333 8.33813C7.75202 8.35429 7.78712 8.37795 7.8166 8.40776C7.84608 8.43757 7.86935 8.47293 7.88507 8.51179C7.90079 8.55066 7.90865 8.59226 7.90818 8.63418ZM11.8074 11.9083V11.1544C11.8058 10.9056 11.7058 10.6676 11.5293 10.4922C11.3528 10.3169 11.1142 10.2185 10.8654 10.2185C10.6166 10.2185 10.3779 10.3169 10.2014 10.4922C10.025 10.6676 9.92502 10.9056 9.92342 11.1544V11.9083C9.92262 12.0325 9.94639 12.1557 9.99337 12.2707C10.0403 12.3857 10.1096 12.4902 10.1972 12.5783C10.2847 12.6664 10.3888 12.7364 10.5035 12.7841C10.6182 12.8318 10.7412 12.8564 10.8654 12.8564C10.9896 12.8564 11.1126 12.8318 11.2273 12.7841C11.342 12.7364 11.4461 12.6664 11.5336 12.5783C11.6212 12.4902 11.6904 12.3857 11.7374 12.2707C11.7844 12.1557 11.8082 12.0325 11.8074 11.9083ZM11.1824 11.1544V11.9083C11.1828 11.9502 11.175 11.9918 11.1593 12.0307C11.1435 12.0696 11.1203 12.1049 11.0908 12.1347C11.0613 12.1645 11.0262 12.1882 10.9875 12.2044C10.9488 12.2205 10.9073 12.2288 10.8654 12.2288C10.8235 12.2288 10.782 12.2205 10.7433 12.2044C10.7046 12.1882 10.6695 12.1645 10.64 12.1347C10.6105 12.1049 10.5872 12.0696 10.5715 12.0307C10.5558 11.9918 10.5479 11.9502 10.5484 11.9083V11.1544C10.5495 11.0708 10.5832 10.991 10.6423 10.9319C10.7014 10.8728 10.7812 10.8391 10.8648 10.838C10.9488 10.8379 11.0294 10.8712 11.089 10.9304C11.1485 10.9897 11.1821 11.0702 11.1824 11.1542L11.1824 11.1544Z" fill="#F98E71"/>
</svg>
