<svg width="20" height="21" viewBox="0 0 20 21" fill="none" xmlns="http://www.w3.org/2000/svg">
<path d="M5.82261 10.147C5.46967 10.147 5.23438 9.91174 5.23438 9.55879V6.14703C5.23438 3.55879 7.35202 1.38232 9.99908 1.38232C12.6461 1.38232 14.7638 3.49997 14.7638 6.14703V9.3235C14.7638 9.67644 14.5285 9.91174 14.1756 9.91174C13.8226 9.91174 13.5873 9.67644 13.5873 9.3235V6.14703C13.5873 4.20585 11.9991 2.55879 9.99908 2.55879C7.99908 2.55879 6.41085 4.14703 6.41085 6.14703V9.61762C6.41085 9.91174 6.17555 10.147 5.82261 10.147Z" fill="#CD192F"/>
<path d="M9.99966 6.85303C6.47024 6.85303 3.58789 9.73538 3.58789 13.2648C3.58789 16.7942 6.47024 19.6766 9.99966 19.6766C13.5291 19.6766 16.4114 16.7942 16.4114 13.2648C16.4114 9.73538 13.5291 6.85303 9.99966 6.85303Z" fill="#E8959F"/>
<path d="M9.99988 16.6765C11.9166 16.6765 13.4705 15.1227 13.4705 13.2059C13.4705 11.2892 11.9166 9.73535 9.99988 9.73535C8.08313 9.73535 6.5293 11.2892 6.5293 13.2059C6.5293 15.1227 8.08313 16.6765 9.99988 16.6765Z" fill="white"/>
<path d="M9.58709 14.5589C9.41062 14.5589 9.29297 14.5001 9.17532 14.3824L8.46944 13.6766C8.23415 13.4413 8.23415 13.0883 8.46944 12.853C8.70473 12.6177 9.05767 12.6177 9.29297 12.853L9.52826 13.0883L10.5871 12.0295C10.8224 11.7942 11.1753 11.7942 11.4106 12.0295C11.6459 12.2648 11.6459 12.6177 11.4106 12.853L9.99885 14.3824C9.94003 14.5001 9.76356 14.5589 9.58709 14.5589Z" fill="#CD192F"/>
</svg>
