<svg width="20" height="21" viewBox="0 0 20 21" fill="none" xmlns="http://www.w3.org/2000/svg">
<path d="M15.6243 15.5002V16.3335C15.6243 17.1377 14.9702 17.7918 14.166 17.7918H9.16602C8.82102 17.7918 8.54102 17.5118 8.54102 17.1668C8.54102 16.8218 8.82102 16.5418 9.16602 16.5418H14.166C14.281 16.5418 14.3743 16.4485 14.3743 16.3335V15.5002C14.3743 15.1552 14.6543 14.8752 14.9993 14.8752C15.3443 14.8752 15.6243 15.1552 15.6243 15.5002ZM14.166 3.2085H9.16602C8.82102 3.2085 8.54102 3.4885 8.54102 3.8335C8.54102 4.1785 8.82102 4.4585 9.16602 4.4585H14.166C14.281 4.4585 14.3743 4.55183 14.3743 4.66683V5.50016C14.3743 5.84516 14.6543 6.12516 14.9993 6.12516C15.3443 6.12516 15.6243 5.84516 15.6243 5.50016V4.66683C15.6243 3.86266 14.9702 3.2085 14.166 3.2085ZM17.941 10.0585L15.441 7.5585C15.1968 7.31433 14.801 7.31433 14.5568 7.5585C14.3127 7.80266 14.3127 8.1985 14.5568 8.44266L15.9902 9.876H11.666C11.321 9.876 11.041 10.156 11.041 10.501C11.041 10.846 11.321 11.126 11.666 11.126H15.9902L14.5568 12.5593C14.3127 12.8035 14.3127 13.1993 14.5568 13.4435C14.6785 13.5652 14.8385 13.6268 14.9985 13.6268C15.1585 13.6268 15.3185 13.566 15.4402 13.4435L17.9402 10.9435C18.1843 10.6993 18.1843 10.3035 17.9402 10.0593L17.941 10.0585Z" fill="#CD192F"/>
<path d="M9.23083 2.91848C8.87417 2.64014 8.42083 2.54264 7.97917 2.65264L2.97917 3.90264C2.32917 4.06514 1.875 4.64764 1.875 5.31764V15.6826C1.875 16.3535 2.32917 16.9351 2.97917 17.0976L7.98 18.3476C8.09833 18.3768 8.2175 18.3918 8.33583 18.3918C8.6575 18.3918 8.97083 18.2851 9.23083 18.0818C9.58667 17.8035 9.79083 17.3851 9.79083 16.9326V4.06764C9.79083 3.61514 9.58667 3.19681 9.23083 2.91848Z" fill="#DE6574"/>
</svg>
