<svg width="24" height="25" viewBox="0 0 24 25" fill="none" xmlns="http://www.w3.org/2000/svg">
<g clip-path="url(#clip0_4692_3713)">
<path d="M0 10.2999L8.66339 15.2599L10.9141 12.4361L1.79174 7.61938L0 10.2999Z" fill="#3F9DFB"/>
<path d="M13.0625 12.4256L15.3215 15.26L24.0008 10.2909L22.1847 7.42383L13.0625 12.4256Z" fill="#3F9DFB"/>
<path d="M3.10742 6.72445L11.9868 11.4128L20.8788 6.53727L12.0061 2.34619L3.10742 6.72445Z" fill="#3F9DFB"/>
<path d="M2.26172 17.8874L11.2892 22.654V14.2194L9.38592 16.6074C9.16992 16.8785 8.78864 16.9515 8.48782 16.7792L2.26172 13.2146V17.8874Z" fill="#3F9DFB"/>
<path d="M12.6953 14.2192V22.6319L21.7228 17.6752V13.2144L15.4967 16.779C15.1959 16.9511 14.8146 16.8782 14.5986 16.6072L12.6953 14.2192Z" fill="#3F9DFB"/>
</g>
<defs>
<clipPath id="clip0_4692_3713">
<rect width="24" height="24" fill="white" transform="translate(0 0.5)"/>
</clipPath>
</defs>
</svg>
