<svg width="101" height="100" viewBox="0 0 101 100" fill="none" xmlns="http://www.w3.org/2000/svg">
<path d="M50.4671 24.4905C65.5867 24.7242 78.1967 30.4585 88.1321 41.9272C89.4866 43.4949 89.3216 45.6676 87.8089 46.9671C86.365 48.2047 84.2198 48.0466 82.8928 46.5064C79.2831 42.3122 75.0958 38.84 70.1865 36.2685C54.8056 28.1965 36.4063 30.1766 23.1568 41.384C21.3279 42.931 19.7052 44.7187 18.0619 46.4652C16.6387 47.9778 14.5347 48.2184 13.0221 46.9189C11.5369 45.6332 11.42 43.4536 12.7814 41.8791C21.1079 32.2325 31.5795 26.5257 44.2033 24.7861C45.1934 24.6486 46.1904 24.5455 47.1874 24.4973C48.2806 24.4492 49.3738 24.4836 50.4671 24.4836V24.4905Z" fill="#100F0E"/>
<path d="M51.7192 38.5098C61.2764 38.7573 70.2561 42.8414 77.3243 51.0098C78.7201 52.6187 78.5551 54.702 77.008 56.029C75.5366 57.2941 73.4052 57.1223 72.0438 55.5477C68.3584 51.2779 63.8823 48.1495 58.4368 46.6781C47.3325 43.6803 37.7272 46.4168 29.6827 54.6333C29.387 54.9358 29.1051 55.2658 28.8232 55.589C27.4962 57.081 25.351 57.2873 23.9002 56.0496C22.3669 54.7433 22.2088 52.5912 23.5495 51.0166C26.6986 47.3038 30.4459 44.3541 34.8119 42.1883C39.7555 39.7336 44.9948 38.5441 51.7261 38.5166L51.7192 38.5098Z" fill="#100F0E"/>
<path d="M67.4382 62.4163C67.4382 63.8739 66.5581 65.1597 65.2036 65.6822C63.8422 66.2116 62.3296 65.861 61.312 64.7059C59.8062 63.0076 58.0804 61.6256 55.9764 60.7386C50.2421 58.3115 43.9096 59.8173 39.6467 64.6371C38.636 65.7785 37.3708 66.191 35.9132 65.751C34.5105 65.3247 33.6992 64.314 33.4792 62.8632C33.3279 61.8456 33.6373 60.938 34.2905 60.1473C41.5994 51.3395 55.0345 50.0882 63.8285 57.4314C64.8254 58.2634 65.7674 59.1984 66.5925 60.2023C67.0807 60.7936 67.2869 61.6118 67.6239 62.3269C67.562 62.3544 67.5001 62.3819 67.4382 62.4094V62.4163Z" fill="#100F0E"/>
<path d="M50.4625 80.7676C46.5434 80.7676 43.4287 77.6598 43.4356 73.7475C43.4356 69.8972 46.5709 66.7618 50.435 66.7481C54.3198 66.7343 57.4688 69.8903 57.462 73.7888C57.4551 77.6667 54.3473 80.7676 50.4694 80.7745L50.4625 80.7676Z" fill="#100F0E"/>
<path d="M50.5 0C22.9285 0 0.5 22.4285 0.5 50C0.5 77.5715 22.9285 100 50.5 100C78.0715 100 100.5 77.5715 100.5 50C100.5 22.4285 78.0715 0 50.5 0ZM7.37569 50C7.37569 26.2239 26.717 6.87569 50.5 6.87569C61.7211 6.87569 71.9521 11.1867 79.6323 18.2412L18.7412 79.1323C11.6936 71.4521 7.37569 61.2211 7.37569 50ZM50.5 93.1243C40.4202 93.1243 31.1381 89.6384 23.788 83.8147L84.3146 23.288C90.1315 30.6381 93.6243 39.9202 93.6243 50C93.6243 73.7761 74.283 93.1243 50.5 93.1243Z" fill="#CD192F"/>
</svg>
