<svg width="224" height="284" fill="none" xmlns="http://www.w3.org/2000/svg">
  <mask id="a" style="mask-type:luminance" maskUnits="userSpaceOnUse" x="0" y="213" width="224" height="71">
    <path d="M223.998 214.587v5.023c-.056 16.455-10.909 32.886-32.58 45.444-43.592 25.261-114.49 25.261-158.363 0C10.977 252.339-.056 235.659 0 218.991v-5.023c-.034 16.657 11 33.348 33.078 46.063 43.873 25.261 114.771 25.261 158.362 0 21.672-12.558 32.513-28.989 32.558-45.444Z" fill="#fff"/>
  </mask>
  <g mask="url(#a)">
    <path d="M223.998 214.587v5.023c-.056 16.455-10.909 32.886-32.58 45.444-43.592 25.261-114.49 25.261-158.363 0C10.977 252.339-.056 235.659 0 218.991v-5.023c-.034 16.657 11 33.348 33.078 46.063 43.873 25.261 114.771 25.261 158.362 0 21.672-12.558 32.513-28.989 32.558-45.444Z" fill="#BFBFBF"/>
  </g>
  <path d="M190.943 168.524c43.873 25.261 44.111 66.223.497 91.495-43.591 25.262-114.49 25.262-158.363 0-43.873-25.261-44.11-66.222-.52-91.484 43.614-25.273 114.512-25.273 158.386-.011Z" fill="#F0F0F0"/>
  <path d="m50.83 232.697 106.098-61.087-29.916-17.22-106.098 61.087 29.915 17.22Z" fill="#CDD2D6" style="mix-blend-mode:multiply"/>
  <path d="M131.157 7.09c4.348-2.5 7.882-.485 7.894 4.493l.429 151.479c.011 4.989-3.49 11.048-7.849 13.548l-69.96 40.286c-4.348 2.5-7.883.495-7.894-4.482l-.43-151.48c-.01-4.966 3.502-11.048 7.85-13.548l69.96-40.285v-.012Z" fill="#D9D4F7"/>
  <path d="M58.137 216.952c-2.09 0-3.343-1.7-3.354-4.561l-.43-151.479c-.01-4.65 3.276-10.338 7.341-12.681l69.961-40.285c1.072-.609 2.111-.935 3.026-.935 2.089 0 3.354 1.7 3.354 4.561l.429 151.479c.012 4.651-3.275 10.339-7.34 12.681l-69.96 40.286c-1.074.619-2.124.946-3.027.946v-.012Z" fill="#464469"/>
  <path d="M129.384 12.326c3.524-2.027 6.392-.394 6.403 3.638l.418 147.762c.012 4.032-2.846 8.965-6.369 10.992l-66.392 38.225c-3.523 2.027-6.392.394-6.403-3.638l-.418-147.762c-.011-4.032 2.846-8.965 6.358-10.992l10.3-5.925 4.709 2.14 36.408-20.97 4.676-7.546 10.299-5.924h.011Z" fill="#3455B3"/>
  <path d="M129.418 12.304c3.49-2.016 6.358-.36 6.369 3.66l.418 147.762c.012 4.021-2.834 8.965-6.335 10.97l-66.426 38.247c-3.512 2.027-6.392.371-6.403-3.672l-.418-147.694c-.011-4.044 2.857-9.01 6.358-11.026l8.459-4.866a4.154 4.154 0 0 1 3.783-.18l1.423.642a2.89 2.89 0 0 0 2.63-.124L111.88 27.25a11.61 11.61 0 0 0 4.066-3.93l2.281-3.672a6.542 6.542 0 0 1 2.292-2.219l8.899-5.124Z" fill="#519BF6"/>
  <path d="M126.391.534c-1.434-.833-3.41-.72-5.601.541L50.83 41.36c-4.349 2.512-7.86 8.583-7.85 13.55l.43 151.478c0 2.478.88 4.223 2.292 5.034l10.367 6.003c-1.412-.822-2.292-2.556-2.292-5.034l-.43-151.468c-.01-4.966 3.501-11.048 7.85-13.548l69.96-40.286c2.191-1.261 4.167-1.374 5.601-.54L126.391.546V.534Z" fill="url(#b)"/>
  <path d="M73.234 37.059c-.18.281-.463.551-.858.788 0 0-.023.011-.034.022l-2.71 1.555-4.066 2.342-1.999 1.149c-1.332.766-3.365.856-4.517.18l-1.287-.743c-1.152-.665-1.005-1.836.327-2.602l8.764-5.045c1.332-.766 3.365-.856 4.517-.192l1.287.744c.249.146.44.315.576.495.282.394.271.867 0 1.295v.012Z" fill="#64C95C"/>
  <path d="m57.763 42.363.09.057c.068-.045.147-.102.237-.147l8.764-5.045c1.332-.766 3.365-.856 4.517-.192l1.197.687c1.118-.765 1.174-1.835.09-2.455l-1.287-.743c-1.152-.665-3.185-.586-4.517.191l-8.764 5.046c-1.332.766-1.48 1.937-.327 2.601Z" fill="#D8D9DD"/>
  <path d="M72.377 37.847s-.023.011-.034.022l-2.71 1.555-4.066 2.342-.971-.563c-.52-.293-.78-.698-.78-1.115 0-.518.373-1.07 1.107-1.487l1.954-1.126c1.332-.766 3.365-.856 4.528-.191l.96.563h.012Z" fill="#D8D9DD"/>
  <path d="M73.233 35.764v1.295c-.18.281-.463.552-.858.788 0 0-.023.011-.034.023l-2.71 1.554-5.805.664v-3.243l9.407-1.081Z" fill="#D8D9DD"/>
  <path d="m65.645 38.556-1.05-.608c-1.152-.664-1.005-1.836.327-2.602l1.965-1.126c1.333-.766 3.366-.856 4.517-.191l1.05.608c1.153.664 1.006 1.836-.327 2.602l-1.965 1.126c-1.332.766-3.365.856-4.517.191Z" fill="#C8CCD8"/>
  <path d="M129.384 12.326c3.524-2.027 6.392-.394 6.403 3.638l.418 147.762c.012 4.032-2.846 8.965-6.369 10.992l-66.392 38.225c-3.523 2.027-6.392.394-6.403-3.638l-.418-147.762c-.011-4.032 2.846-8.965 6.358-10.992l10.3-5.925 4.709 2.14 36.408-20.97 4.676-7.546 10.299-5.924h.011Z" fill="#3455B3"/>
  <path d="M129.384 12.326c3.524-2.027 6.392-.394 6.403 3.638l.418 147.762c.012 4.032-2.846 8.965-6.369 10.992l-66.392 38.225c-3.523 2.027-6.392.394-6.403-3.638l-.418-147.762c-.011-4.032 2.846-8.965 6.358-10.992l10.3-5.925 4.709 2.14 36.408-20.97 4.676-7.546 10.299-5.924h.011Z" fill="#CD192F"/>
  <path d="M128.413 55.18a3.792 3.792 0 0 0-3.817 0l-6.076 3.49v3.222l7.476-4.303a.98.98 0 0 1 1.016 0c.159.09.509.35.509.89v10.136l2.8-1.61v-8.526a3.755 3.755 0 0 0-1.908-3.3Zm-.881 45.477v7.478a7.555 7.555 0 0 1-3.783 6.532l-5.229 3.007v3.221l6.618-3.806a10.358 10.358 0 0 0 5.183-8.954v-9.089l-2.8 1.611h.011ZM67.543 146.45a.997.997 0 0 1-.508-.89v-10.057l-2.8 1.61v8.458c0 1.385.71 2.613 1.908 3.3a3.773 3.773 0 0 0 3.817 0l6.076-3.503v-3.221l-7.476 4.303a.979.979 0 0 1-1.017 0Zm1.875-59.488a10.358 10.358 0 0 0-5.184 8.953v9.157l2.801-1.611v-7.546a7.54 7.54 0 0 1 3.783-6.532l5.229-3.007v-3.221l-6.618 3.807h-.011Z" fill="#D9D9D9"/>
  <path d="M122.868 64.753v45.049l-51.18 29.474v-45.05l51.18-29.473Z" fill="#D9D9D9"/>
  <path d="M81.5 95.454v31.298l-2.01 1.149V96.603l2.01-1.149Zm4.201-2.421v31.298l-2.18 1.25V94.283l2.18-1.25Zm6.065-3.492v31.298l-3.41 1.96V91.501l3.41-1.96Zm3.929-2.264v31.298l-1.92 1.104V88.381l1.92-1.104Zm3.299-1.903v31.309l-2.078 1.194v-31.31l2.078-1.193Zm4.583-2.634v31.297l-2.247 1.296V84.034l2.247-1.295Zm3.073-1.77v31.299l-1.761 1.013V81.984l1.761-1.013Zm4.89-2.815v31.298l-2.868 1.656V79.811l2.868-1.656Zm3.523-2.027v31.298l-1.502.867V76.995l1.502-.867Z" fill="#343343"/>
  <path d="M194.351 205.062c.028-5.137-7.184-9.341-16.109-9.39-8.925-.048-16.183 4.078-16.211 9.216-.028 5.138 7.185 9.341 16.11 9.39 8.925.048 16.182-4.078 16.21-9.216Z" fill="#CDD2D6" style="mix-blend-mode:multiply"/>
  <path d="M192.299 202.648s.666.113.892 1.172c.214 1.058.022 1.678-.057 1.813s-.915 1.746-1.355 1.993c-.44.259-.553.226-.553.226s-1.559 3.164-2.553 4.155c-.993.992-3.354 2.23-5.849 2.23-2.496 0-3.072-1.599-3.072-1.835 0-.237.124-1.228 2.36-2.748a3585.09 3585.09 0 0 0 10.187-7.006Z" fill="#100F0E"/>
  <path d="M185.365 200.632c-.045.135.215 2.715-.564 3.582-.791.867-4.258 4.978-4.427 5.597-.17.62-.113 1.881-.079 2.208.022.326 1.761 2.038 4.506 1.351 2.744-.676 4.528-3.232 5.499-4.967.96-1.734 2.428-3.232 2.666-4.11.237-.868.18-3.773.18-3.818 0-.045-7.769.146-7.769.146l-.012.011Z" fill="#40485C"/>
  <path d="M176.218 195.418c.599.45 1.954 1.588 1.977 2.455.011.811-.034 1.284-.147 1.543-.113.259-2.631 1.239-3.264 1.464-.643.225-.948-.236-1.648.259-.701.496-2.462 1.859-3.355 2.512-.892.653-3.218 1.272-5.172.968-1.965-.304-2.157-.979-2.292-1.802-.147-.811.327-1.79.553-2.117.226-.327 1.502-1.194 3.84-1.532 2.337-.338 9.52-3.75 9.52-3.75h-.012Z" fill="#100F0E"/>
  <path d="M171.691 193.38c-.237 1.047-.881 2.095-.881 2.095s-6.38 3.119-7.295 4.234c-.915 1.115-.904 2.546-.904 2.546s.373 1.295 2.857 1.306c2.53.011 4.281-.833 4.924-1.509.644-.676 1.999-1.487 3.377-1.937 2.258-.53 4.133-1.307 4.099-2.433-.034-1.16-.214-3.638-.214-3.638l-5.963-.664Z" fill="#40485C"/>
  <path d="M175.066 103.202c-4.449-.642-7.002 3.277-8.436 8.739-.677 2.579-3.489 12.693-3.806 14.743-.316 2.049 1.57 4.11 2.609 4.223 1.039.113 2.134 1.014 4.032-1.228 1.897-2.241 12.23-26.95 5.601-26.489v.012Z" fill="#DBE6FF"/>
  <path d="M164.123 123.846c-1.468.788-5.138 5.699-9.057 8.109-2.179 3.097.181 5.687 1.672 5.687 1.49 0 13.077-6.397 13.45-9.043-.689-2.332-1.57-5.125-6.065-4.753Z" fill="#E0E9FF"/>
  <path d="M154.739 131.178s-1.502.18-2.089.27c-.587.09-.779.439-.779.439l.068.676s-.588.36-.43.8c.159.439.893.27.893.27l1.072-.653s.96.248 1.051.439c.09.191.101.833 1.163 1.014 1.061.18 1.626-1.138 1.208-1.791-.418-.653-2.157-1.453-2.157-1.453v-.011Z" fill="#FFADB7"/>
  <path d="M170.085 139.805c-1.039 5.011-2.677 7.568-2.349 13.785.316 6.217.169 22.198 1.152 25.182.982 2.985 5.85 1.386 7.453.586 1.604-.799 2.406-2.185 2.677-3.198.271-1.014 3.738-29.587 2.936-32.413-.802-2.827-11.869-3.942-11.869-3.942Z" fill="#4B7D00"/>
  <path d="M174.875 145.931s-.712 6.712 0 10.181c.711 3.469 3.975 3.784 4.291 4.854.316 1.07.599 15.058 1.615 18.369s10.796 4.303 11.011 1.183c.214-3.12-.531-4.618.485-10.857 1.017-6.239 1.638-10.553.734-17.919-.892-7.354-1.863-11.093-1.965-11.566-.101-.473-16.16 5.755-16.16 5.755h-.011Z" fill="#528700"/>
  <path d="M179.752 177.748c-.102 1.982-.351 8.976-.61 12.895-.125 1.926-.26 3.717-.384 4.978-1.141 1.701-7.499 1.476-7.894-.484-.124-.597-.384-2.5-.689-4.877-.7-5.428-1.626-13.255-1.626-13.255s9.226-11.657 9.305-11.297c.068.361 2.033 9.089 1.898 12.04Z" fill="#4B7D00"/>
  <path d="M194.23 199.056c-.023 1.374-.328 2.151-.554 2.602-.982 1.937-7.193 4.111-8.582.27-.046-.811-.226-2.038-.497-3.514-1.084-5.89-3.558-15.733-3.806-19.078l9.475-8.323s1.445-1.475 2.45 5.778c.768 5.552 1.604 17.772 1.525 22.265h-.011Z" fill="#528700"/>
  <path d="m193.811 209.474-2.123-.124c.384-6.352-1.773-24-3.218-33.63a10.243 10.243 0 0 1-.068-2.353c1.818-19.011 1.4-20.543-.937-29.012l-.057-.203 2.044-.563.057.203c2.371 8.582 2.868 10.372 1.005 29.777a7.678 7.678 0 0 0 .045 1.836c1.457 9.719 3.625 27.548 3.23 34.069h.022Z" fill="#BFC8DE"/>
  <path d="M183.287 104.373c6.922 2.376 11.462 6.104 11.462 6.104 1.073 1.149-4.099 28.899-3.275 33.979-5.172 5.113-14.15 3.514-16.612 3.412-2.462-.101-5.24-1.993-5.771-4.122-.531-2.128.316-13.931-.395-20.227-.712-6.296-.407-11.161.779-14.675 3.207-9.494 9.52-3.232 9.52-3.232l4.292-1.239Z" fill="#D4DFF7"/>
  <path d="M177.811 120.771s-.509 6.803-.486 7.625c.023.822 3.873 1.7 3.873 1.7s3.738-.405 3.93-1.205c.192-.799.294-7.433.294-7.433l-7.623-.698.012.011Z" fill="#E0E9FF"/>
  <path d="M191.622 142.868c.034 1.453-6.065 4.179-13.112 3.188a27.096 27.096 0 0 1-1.592-.271 23.83 23.83 0 0 1-2.146-.507c-4.393-1.227-6.335-3.085-6.448-3.423-.147-.417.486-13.752 0-17.716-.485-3.964-.034-10.249.824-14.157.847-3.897 2.7-5.563 5.624-6.577 2.925-1.025 5.365-1.205 5.319-1.092-.045.112-5.77 2.128-6.561 8.165-.61 4.64.316 9.179 1.468 12.197.35.901.712 1.667 1.062 2.264.384-.62.734-1.205 1.061-1.757 4.461-7.557 3.433-8.402 9.78-15.137 1.129-1.205 1.355-1.182 1.389-1.171-.113-.102-1.953-1.746-3.196-1.836-1.276-.09 1.491-.09 1.491-.09 3.151 1.442 6.493 3.536 7.521 5.034-3.964 1.205-5.884 2.636-7.781 7.737-1.897 5.102.034 11.77 2.496 13.008 2.462 1.228 2.835.597 2.767.744-.068.146.022 9.933.045 11.386l-.011.011Z" fill="#84D600"/>
  <path d="M177.099 124.983c0 .158-.542 13.932-.192 20.813a24.176 24.176 0 0 1-2.146-.507c-.293-7.05.181-19.529.215-20.362v-2.241c.35.901.712 1.666 1.062 2.263.384-.619.734-1.205 1.061-1.757v1.791Z" fill="#BFC8DE"/>
  <path d="M188.788 136.888c-.249-1.813-.96-11.229-.316-16.837.643-5.598 1.253-7.107 3.715-8.717 2.462-.98 2.552-.856 2.552-.856 1.039.507 2.496 1.712 2.823 13.807.215 8.154-.316 10.88-.688 11.578-.373.698-8.086 1.025-8.086 1.025Z" fill="#E0E9FF"/>
  <path d="M175.066 103.427s2.361 4.393 2.282 5.902c-.079 1.498 5.025.236 6.109-1.532 1.084-1.768 1.807-2.5 1.592-3.705-.214-1.205-.937-3.019-1.208-5.823-.271-2.804-2.112-8.199-4.111-7.546-1.998.653-4.664 12.716-4.664 12.716v-.012Z" fill="#FFADB7"/>
  <path d="m184.484 101.896.316 1.171s-.282 1.824-2.981 3.638c-2.699 1.813-4.495 2.275-4.495 2.275l1.276 3.784s1.017-.394 2.09-1.093c1.072-.698 5.251-3.536 5.815-4.809.565-1.284.317-1.892.317-1.892l-1.57-3.018-.757-.045-.011-.011Z" fill="#E0E9FF"/>
  <path d="M176.195 106.986c-.012.473.655 1.352 1.14 2.005-.677 1.532-2.473 2.68-2.473 2.68s-.169-3.299-.068-3.986c.102-.687 1.412-.699 1.412-.699h-.011Z" fill="#E0E9FF"/>
  <path d="M157.076 132.349s.497.98.485 2.038c-.022 1.07-.361 2.275-.485 2.467-.124.191-1.051.89-1.751 1.205-.7.315-2.157 0-2.157 0s-3.15-3.942-3.15-4.122c0-.18.101-.676.101-.676l2.428-1.385 3.207.18 1.322.282v.011Zm17.763 10.879s-1.129.034-1.513.102c-.384.067-1.31.36-1.31.36s-.282.529-1.118.529c-.836 0-.836-.473-.836-.698 0-.225 1.118-.822 1.502-1.137.396-.102 1.92-.563 2.428-.53.497.034 2.451.248 3.027.552.576.304.915.529.915.529s-1.039.485-3.072.282l-.023.011Z" fill="#FFADB7"/>
  <path d="m177.98 152.508-.745.935c.068-.09.011-.281-.192-.585l.745-.935c.204.293.26.495.192.585Zm-31.101-24.709.745-.935c.113-.135.52-.034 1.163.338l-.745.934c-.644-.371-1.05-.473-1.163-.337Zm21.682 12.951.745-.935 8.481 12.107-.745.924-8.481-12.096Z" fill="#100F0E"/>
  <path d="m148.041 128.136.757-.935 17.639 10.159-.745.935-17.651-10.159Zm17.652 10.159.746-.935c1.061.609 2.349 1.712 2.868 2.456l-.745.934c-.52-.743-1.807-1.847-2.869-2.455Z" fill="#100F0E"/>
  <path d="M165.693 138.295c1.061.608 2.349 1.712 2.868 2.455l8.481 12.096c.52.744.09.856-.971.248l-17.64-10.159c-1.061-.608-2.349-1.712-2.868-2.455l-8.481-12.107c-.52-.743-.091-.856.971-.248l17.64 10.159v.011Z" fill="#100F0E"/>
  <path d="M151.237 134.444s1.389.079 1.57.226c.192.146.079.608.079.608l.791-.654s.632.406.632.811c.226.282.599.609.621 1.059l.023.451s.372.506.203.923c-.169.417-1.457 1.081-1.457 1.081s-1.671-.417-1.886-.732c-.214-.315-.124-1.081-.124-1.081l-.158-.349s-.429.135-.87-.192c-.44-.315-.248-1.115-.248-1.115s-.7-.371-.937-.777c-.238-.405.417-1.374.417-1.374l.226-.067.339.822.779.349v.011Z" fill="#FFADB7"/>
  <path d="M177.687 147.272c.745 1.081 1.276.968 2.812.597 1.536-.372 17.504-8.019 16.375-13.087-1.141-5.068-6.821-3.03-7.747-2.14-.938.89-3.14 3.322-6.991 6.059-3.851 2.748-6.166 3.717-6.426 4.28-.259.563 1.977 4.302 1.977 4.302v-.011Z" fill="#E0E9FF"/>
  <path d="M178.386 142.879s-1.129-.495-1.75-.563c-.621-.067-3.569.608-3.569.608s-2.157.98-2.19 1.318a52.605 52.605 0 0 0-.091 1.352l.147.304s-.237.653-.147.991c.09.338.463.619.463.619s.023.586.249.822c.225.237.406.192.406.192s.215.698.395.867c.181.169 1.197.338 1.197.338s1.627.214 2.304 0c.678-.214 2.846-1.971 3.275-2.095.429-.124.7-.484.7-.484s-.372-3.548-1.377-4.269h-.012Zm-8.73-51.379c-.451.924-1.129 1.409-.723 3.774.407 2.376 1.807 7.039 2.372 8.278.565 1.238 2.033 3.986 2.541 4.403.508.417 1.954.518 2.767.484.813-.033 5.048-3.074 5.601-4.719.553-1.644.452-8.199-.576-10.36-1.039-2.163-10.073-2.501-11.97-1.87l-.012.01Z" fill="#FFADB7"/>
  <path d="M171.881 94.485c.633.045 1.276.034 1.909-.023.745-.067 1.434-.349 2.179-.405.17-.011.35-.011.508.045.475.18.407 1.014.497 1.43.091.417.192.98.497 1.296.633.653 2.168 1.092 2.552 2.815l.215 1.408 1.084-.811s-.181-1.982-.09-2.894c.09-.913 1.095-2.5 2.134-.755-.192 1.408-.113 1.858.734 3.649.667-3.052 1.288-3.683 1.401-7.41.101-3.728-.802-7.422-4.856-7.94-3.58-1.825-6.471-1.15-9.758 1.903-3.241 3.018-2.676 5.935-2.665 5.991.057.304.429.845.644 1.003.723.495 1.852.585 2.71.664.091 0 .192.011.283.023l.022.01Z" fill="#202459"/>
  <path d="M176.41 97.39c-.271 0-.52-.034-.734-.112l.305-.8c.926.349 3.196-.676 5.386-1.667l.373-.169c2.823-1.272 3.128-3.097 3.128-3.818h.859c0 .89-.35 3.12-3.637 4.595l-.372.17c-2.124.957-4.009 1.801-5.308 1.801Z" fill="#D4DFF7"/>
  <path d="M182.102 96.974c.158-1.059.632-1.352 1.446-1.33.813.023 1.084.485.847 2.22-.249 1.734-.904 2.601-1.66 2.691-.757.09-.667-.754-.633-1.273.034-.506.011-2.308.011-2.308h-.011Z" fill="#FFADB7"/>
  <path d="M185.885 90.667c-.203 2.816-6.358 5.687-10.818 6.397-4.45.71-7.058-.35-8.12-2.016-.384-2.241-.339-4.347.282-6.363.317-1.059 1.028-2.748 1.762-3.593 3.569-3.446 9.26-3.108 10.48-2.827 3.817 1.42 5.997 4.28 6.358 7.377.045.338.056.687.056 1.025Z" fill="#FFAE00"/>
  <path d="M181.966 84.54c.43 2.106-2.258 4.437-6.007 5.214-3.75.777-7.149-.315-7.578-2.432-.429-2.106 2.259-4.438 6.008-5.215 3.749-.766 7.148.316 7.577 2.433Z" fill="#FFAE00"/>
  <path d="M166.834 94.36s-1.265 1.498-.474 3.165c.779 1.667 4.912 2.489 7.69 1.813 2.778-.675 4.8-3.254 4.8-3.254s-5.602 1.982-9.645.506c-1.829-.99-1.987-1.171-2.36-2.23h-.011Zm13.2-9.674c.316 1.532-1.626 3.21-4.348 3.773-2.71.552-5.172-.237-5.488-1.757-.317-1.52 1.637-3.21 4.347-3.773 2.711-.552 5.173.237 5.489 1.757Z" fill="#FFBB29"/>
  <path d="M185.885 90.667c-.203 2.815-6.358 5.687-10.818 6.397-4.45.71-7.058-.35-8.12-2.016-.384-2.241-.339-4.347.282-6.363.305 2.86 1.785 4.977 5.681 5.676 3.523.63 10.593-1.25 12.919-4.72.045.339.056.688.056 1.026Z" fill="#F59200"/>
  <path d="m103.525 238.485 28.052-16.15 27.905 16.071-28.051 16.151-27.906-16.072Z" fill="#CDD2D6" style="mix-blend-mode:multiply"/>
  <path d="m62.17 220.803 39.108-22.513 38.893 22.401-39.108 22.513-38.893-22.401Z" fill="#CDD2D6" style="mix-blend-mode:multiply"/>
  <path d="m68.031 220.803 33.032 19.023v-35.972l-33.032-19.011v35.96Z" fill="#AE835B"/>
  <path d="m134.309 220.691-33.247 19.134v-35.971l33.247-19.135v35.972Zm-2.879 4.561v26.849l23.523-13.537v-26.861l-23.523 13.549Z" fill="#C99A6B"/>
  <path d="m108.055 238.642 23.376 13.459v-26.849l-23.376-13.459v26.849Z" fill="#AE835B"/>
  <path d="m108.055 211.793 23.376 13.458 23.524-13.548-23.377-13.459-23.523 13.549Zm-40.024-26.951 33.032 19.011 33.247-19.135-33.032-19.022-33.247 19.146Z" fill="#E8B687"/>
  <path d="m145.151 229.847-3.919 2.252v-12.49l3.919-2.263v12.501Z" fill="#F59200"/>
  <path d="m145.151 217.345-3.919 2.264-23.377-13.459 3.919-2.263 23.377 13.458Z" fill="#FFAE00"/>
  <path d="m82.588 209.012 3.919 2.252v-15.79l-3.92-2.252v15.79Z" fill="#D66B00"/>
  <path d="m82.588 193.221 3.919 2.253 33.246-19.135-3.918-2.264-33.247 19.146Z" fill="#FFAE00"/>
  <path d="m76.715 181.284 23.523-13.549 23.388 13.47-23.512 13.549-23.4-13.47Z" fill="#AE835B"/>
  <path d="M100.239 169.3v23.257l-19.989-11.51V157.79l19.989 11.51Z" fill="#AE835B"/>
  <path d="m120.103 181.114-19.865 11.443V169.3l19.865-11.443v23.257Z" fill="#C99A6B"/>
  <path d="M120.103 157.858 100.239 169.3 80.25 157.79l19.864-11.442 19.989 11.51Z" fill="#E8B687"/>
  <path d="m112.13 173.917-3.919 2.264v-11.476l3.919-2.253v11.465Z" fill="#F59200"/>
  <path d="m112.13 162.453-3.919 2.252-19.988-11.51 3.918-2.253 19.989 11.511Z" fill="#FFAE00"/>
  <defs>
    <linearGradient id="b" x1="15.064" y1="193.819" x2="126.365" y2=".52" gradientUnits="userSpaceOnUse">
      <stop stop-color="#BAC2D4"/>
      <stop offset=".14" stop-color="#A9B0C7"/>
      <stop offset=".17" stop-color="#A9B0C7"/>
      <stop offset=".6" stop-color="#A9B0C7"/>
      <stop offset=".62" stop-color="#C8CCD8"/>
      <stop offset=".63" stop-color="#E1E1E6"/>
      <stop offset=".64" stop-color="#EAEAEB"/>
      <stop offset=".65" stop-color="#E5E6E8"/>
      <stop offset=".66" stop-color="#C4C9D6"/>
      <stop offset=".67" stop-color="#BAC0D1"/>
      <stop offset="1" stop-color="#BDC4D2"/>
    </linearGradient>
  </defs>
</svg>
