<svg width="21" height="20" viewBox="0 0 21 20" fill="none" xmlns="http://www.w3.org/2000/svg">
<g clip-path="url(#clip0_4187_22897)">
<path d="M13.7301 3.83594V5.06249C13.7301 6.03177 12.9415 6.82034 11.9722 6.82034H5.69601C4.72673 6.82034 3.93816 6.03177 3.93816 5.06249V3.83598C3.16658 4.05532 2.59961 4.76592 2.59961 5.60688V18.1592C2.59961 19.1745 3.42557 20.0004 4.44079 20.0004H13.2275C14.2427 20.0004 15.0687 19.1745 15.0687 18.1592V5.60684C15.0687 4.76588 14.5017 4.05528 13.7301 3.83594ZM6.32364 16.8623C6.0002 16.8623 5.73769 16.5998 5.73769 16.2763C5.73769 15.9529 6.0002 15.6904 6.32364 15.6904C6.64709 15.6904 6.90959 15.9529 6.90959 16.2763C6.90959 16.5998 6.64709 16.8623 6.32364 16.8623ZM6.32364 14.3518C6.0002 14.3518 5.73769 14.0893 5.73769 13.7659C5.73769 13.4424 6.0002 13.1799 6.32364 13.1799C6.64709 13.1799 6.90959 13.4424 6.90959 13.7659C6.90959 14.0893 6.64709 14.3518 6.32364 14.3518ZM8.83413 16.8623C8.51069 16.8623 8.24818 16.5998 8.24818 16.2763C8.24818 15.9529 8.51069 15.6904 8.83413 15.6904C9.15758 15.6904 9.42008 15.9529 9.42008 16.2763C9.42008 16.5998 9.15758 16.8623 8.83413 16.8623ZM8.83413 14.3518C8.51069 14.3518 8.24818 14.0893 8.24818 13.7659C8.24818 13.4424 8.51069 13.1799 8.83413 13.1799C9.15758 13.1799 9.42008 13.4424 9.42008 13.7659C9.42008 14.0893 9.15758 14.3518 8.83413 14.3518ZM11.3446 16.8623C11.0211 16.8623 10.7586 16.5998 10.7586 16.2763C10.7586 15.9529 11.0211 15.6904 11.3446 15.6904C11.668 15.6904 11.9305 15.9529 11.9305 16.2763C11.9305 16.5998 11.668 16.8623 11.3446 16.8623ZM11.3446 14.3518C11.0211 14.3518 10.7586 14.0893 10.7586 13.7659C10.7586 13.4424 11.0211 13.1799 11.3446 13.1799C11.668 13.1799 11.9305 13.4424 11.9305 13.7659C11.9305 14.0893 11.668 14.3518 11.3446 14.3518ZM12.5582 11.2554C12.5582 11.579 12.2958 11.8414 11.9722 11.8414H5.69601C5.37241 11.8414 5.11006 11.579 5.11006 11.2554V8.74488C5.11006 8.42128 5.37241 8.15893 5.69601 8.15893H11.9722C12.2958 8.15893 12.5582 8.42128 12.5582 8.74488V11.2554Z" fill="#81B622"/>
<path d="M6.2832 9.33008H11.3875V10.6687H6.2832V9.33008Z" fill="#81B622"/>
<path d="M16.241 1.17188C15.2112 1.17188 14.3266 1.79224 13.9395 2.67945C15.2585 3.00012 16.241 4.19062 16.241 5.60694V10.99L16.9103 10.6553L17.9035 11.152C18.1285 11.2643 18.4057 11.2226 18.5888 11.0334C18.6961 10.9224 18.7515 10.771 18.7515 10.6166V3.68232C18.7514 2.29585 17.6275 1.17188 16.241 1.17188Z" fill="#81B622"/>
<path d="M5.69728 5.6481H11.9735C12.2971 5.6481 12.5594 5.38575 12.5594 5.06215V3.68188C12.5594 1.75442 14.0481 0.168324 15.936 0.012344L8.48356 0C6.59773 0.158051 5.11133 1.74309 5.11133 3.66907V5.04934V5.06215C5.11133 5.38575 5.37368 5.6481 5.69728 5.6481Z" fill="#81B622"/>
</g>
<defs>
<clipPath id="clip0_4187_22897">
<rect width="20" height="20" fill="white" transform="translate(0.675781)"/>
</clipPath>
</defs>
</svg>
