<svg width="18" height="17" viewBox="0 0 18 17" fill="none" xmlns="http://www.w3.org/2000/svg">
<path d="M1.1487 14.3417L1.13203 14.3583C0.907031 13.8667 0.765365 13.3083 0.707031 12.6917C0.765365 13.3 0.923698 13.85 1.1487 14.3417Z" fill="#CD192F"/>
<path d="M6.49896 7.15002C7.59436 7.15002 8.48228 6.26204 8.48228 5.16668C8.48228 4.07132 7.59436 3.18335 6.49896 3.18335C5.40359 3.18335 4.51562 4.07132 4.51562 5.16668C4.51562 6.26204 5.40359 7.15002 6.49896 7.15002Z" fill="#CD192F"/>
<path d="M12.491 0.166748H5.50768C2.47435 0.166748 0.666016 1.97508 0.666016 5.00841V11.9917C0.666016 12.9001 0.824349 13.6917 1.13268 14.3584C1.84935 15.9417 3.38268 16.8334 5.50768 16.8334H12.491C15.5244 16.8334 17.3327 15.0251 17.3327 11.9917V10.0834V5.00841C17.3327 1.97508 15.5244 0.166748 12.491 0.166748ZM15.9743 8.91675C15.3244 8.35841 14.2743 8.35841 13.6243 8.91675L10.1577 11.8917C9.50768 12.4501 8.45768 12.4501 7.80768 11.8917L7.52435 11.6584C6.93268 11.1417 5.99102 11.0917 5.32435 11.5417L2.20768 13.6334C2.02435 13.1667 1.91602 12.6251 1.91602 11.9917V5.00841C1.91602 2.65841 3.15768 1.41675 5.50768 1.41675H12.491C14.841 1.41675 16.0827 2.65841 16.0827 5.00841V9.00842L15.9743 8.91675Z" fill="#CD192F"/>
</svg>
