<svg width="20" height="21" viewBox="0 0 20 21" fill="none" xmlns="http://www.w3.org/2000/svg">
<path d="M18.3333 0.5H11.4061C10.9478 0.5 10.3073 0.765477 9.98356 1.08901L0.486361 10.5862C-0.16212 11.2339 -0.16212 12.2959 0.486361 12.9429L7.55779 20.0141C8.20481 20.6618 9.26579 20.6618 9.91378 20.0133L19.411 10.5177C19.7345 10.1942 20 9.55267 20 9.0954V2.16674C20 1.25024 19.2497 0.5 18.3333 0.5ZM14.9997 7.1667C14.0792 7.1667 13.333 6.41968 13.333 5.49996C13.333 4.57873 14.0792 3.83323 14.9997 3.83323C15.9202 3.83323 16.6667 4.57873 16.6667 5.49996C16.6668 6.41968 15.9202 7.1667 14.9997 7.1667Z" fill="#F98E71"/>
</svg>
