<svg width="20" height="21" viewBox="0 0 20 21" fill="none" xmlns="http://www.w3.org/2000/svg">
<g clip-path="url(#clip0_4068_11937)">
<path d="M14.1164 10.9384L13.7729 5.05908H11.0004V7.69912H9.8286V5.05908H5.31536V7.69912H4.14354V5.05908H1.371L0.755206 15.6005C0.707278 16.4213 0.991563 17.2027 1.55572 17.8008C2.11987 18.3989 2.88336 18.7282 3.70551 18.7282H10.2057C9.82638 17.9897 9.61217 17.1531 9.61217 16.2674C9.61217 13.5941 11.5634 11.3683 14.1164 10.9384Z" fill="#F98E71"/>
<path d="M5.3144 3.92841C5.3144 2.68413 6.3267 1.67182 7.57099 1.67182C8.81527 1.67182 9.82761 2.68413 9.82761 3.92841V5.05918H10.9994V3.92841C10.9994 2.03798 9.46145 0.5 7.57099 0.5C5.68052 0.5 4.14258 2.03798 4.14258 3.92841V5.05918H5.3144V3.92841Z" fill="#F98E71"/>
<path d="M19.2482 16.2677C19.2482 13.9339 17.3495 12.0352 15.0157 12.0352C12.6819 12.0352 10.7832 13.9339 10.7832 16.2677C10.7832 18.6015 12.6819 20.5001 15.0157 20.5001C17.3495 20.5001 19.2482 18.6015 19.2482 16.2677ZM14.382 18.3406L12.4788 16.188L13.3567 15.4118L14.4198 16.6143L16.6216 14.3336L17.4647 15.1475L14.382 18.3406Z" fill="#F98E71"/>
</g>
<defs>
<clipPath id="clip0_4068_11937">
<rect width="20" height="20" fill="white" transform="translate(0 0.5)"/>
</clipPath>
</defs>
</svg>
