<svg width="24" height="24" viewBox="0 0 24 24" fill="none" xmlns="http://www.w3.org/2000/svg">
<g clip-path="url(#clip0_3927_6867)">
<path d="M10.5 24C11.3284 24 12 23.3284 12 22.5C12 21.6716 11.3284 21 10.5 21C9.67157 21 9 21.6716 9 22.5C9 23.3284 9.67157 24 10.5 24Z" fill="#3F9DFB"/>
<path d="M18.5 24C19.3284 24 20 23.3284 20 22.5C20 21.6716 19.3284 21 18.5 21C17.6716 21 17 21.6716 17 22.5C17 23.3284 17.6716 24 18.5 24Z" fill="#3F9DFB"/>
<path d="M24 6.5C24 10.084 21.084 13 17.5 13C13.916 13 11 10.084 11 6.5C11 2.916 13.916 0 17.5 0C21.084 0 24 2.916 24 6.5ZM20.658 3.498C20.242 3.134 19.611 3.178 19.247 3.592L16.451 6.788L15.207 5.544C14.816 5.153 14.184 5.153 13.793 5.544C13.402 5.935 13.402 6.567 13.793 6.958L15.793 8.958C16.202 9.367 16.872 9.345 17.252 8.91L20.752 4.91C21.116 4.493 21.074 3.861 20.658 3.498Z" fill="#3F9DFB"/>
<path d="M9.00001 6.5C9.00001 6.331 9.01501 6.166 9.02501 6H6.35901L5.97901 4.194C5.71301 2.934 4.58701 2.016 3.30001 2.011L0.753009 2C0.752009 2 0.751009 2 0.750009 2C0.337009 2 0.00200891 2.333 8.90883e-06 2.747C-0.00199109 3.161 0.333009 3.498 0.747009 3.5L3.29301 3.511C3.87801 3.513 4.39001 3.931 4.51101 4.503L5.01601 6.904L6.82601 15.5H6.25001C5.00901 15.5 4.00001 16.509 4.00001 17.75C4.00001 18.991 5.00901 20 6.25001 20H21.25C21.664 20 22 19.664 22 19.25C22 18.836 21.664 18.5 21.25 18.5H6.25001C5.83601 18.5 5.50001 18.164 5.50001 17.75C5.50001 17.336 5.83601 17 6.25001 17H7.74901H21.25C21.604 17 21.911 16.751 21.984 16.404L22.649 13.247C21.218 14.342 19.436 15 17.5 15C12.813 15 9.00001 11.187 9.00001 6.5Z" fill="#3F9DFB"/>
</g>
<defs>
<clipPath id="clip0_3927_6867">
<rect width="24" height="24" fill="white"/>
</clipPath>
</defs>
</svg>
