<svg width="20" height="20" viewBox="0 0 20 20" fill="none" xmlns="http://www.w3.org/2000/svg">
<path d="M19.8277 4.56441L15.4345 0.171206C15.2163 -0.0557861 14.824 -0.0557471 14.6059 0.171206L10.2126 4.56441C10.0451 4.73199 9.99495 4.98402 10.0856 5.20296C10.1763 5.42191 10.39 5.56468 10.6269 5.56468H12.5514V19.4136C12.5514 19.7372 12.8138 19.9996 13.1374 19.9996H16.903C17.2266 19.9996 17.4889 19.7372 17.4889 19.4136V5.56468H19.4134C19.6504 5.56468 19.8641 5.42191 19.9548 5.20296C20.0454 4.98402 19.9953 4.73203 19.8277 4.56441Z" fill="#F98E71"/>
<path d="M10.627 8.1582H6.86133C6.53773 8.1582 6.27539 8.42055 6.27539 8.74414V19.4134C6.27539 19.737 6.53773 19.9993 6.86133 19.9993H10.627C10.9505 19.9993 11.2129 19.737 11.2129 19.4134V8.74414C11.2129 8.42055 10.9505 8.1582 10.627 8.1582Z" fill="#F98E71"/>
<path d="M4.35156 13.1792H0.585938C0.262344 13.1792 0 13.4415 0 13.7651V19.4136C0 19.7372 0.262344 19.9995 0.585938 19.9995H4.35156C4.67516 19.9995 4.9375 19.7372 4.9375 19.4136V13.7651C4.9375 13.4415 4.67516 13.1792 4.35156 13.1792Z" fill="#F98E71"/>
</svg>
