<svg width="20" height="19" viewBox="0 0 20 19" fill="none" xmlns="http://www.w3.org/2000/svg">
<path fill-rule="evenodd" clip-rule="evenodd" d="M2.85613 18.7097V18.2731C2.85613 18.1648 2.94389 18.077 3.0522 18.077H19.2153C19.3236 18.077 19.4114 18.1648 19.4114 18.2731V18.7097C19.4114 18.818 19.3236 18.9058 19.2153 18.9058H3.0522C2.94389 18.9058 2.85613 18.818 2.85613 18.7097ZM3.92809 17.4496V14.2956C3.92809 14.1873 4.01585 14.0995 4.12417 14.0995H5.92511C6.03342 14.0995 6.12118 14.1873 6.12118 14.2956V17.4496H3.92809ZM8.00115 17.4496V12.0902C8.00115 12.0381 8.02181 11.9883 8.05856 11.9515C8.09534 11.9147 8.14522 11.8941 8.19722 11.8941H9.99817C10.0502 11.8941 10.1 11.9147 10.1368 11.9515C10.1736 11.9883 10.1942 12.0381 10.1942 12.0902V17.4496H8.00115ZM12.0733 17.4496V9.78822C12.0733 9.73622 12.0939 9.68638 12.1307 9.64959C12.1675 9.61281 12.2173 9.59214 12.2693 9.59214H14.0713C14.1233 9.59214 14.1731 9.61281 14.2099 9.64959C14.2467 9.68638 14.2673 9.73622 14.2673 9.78822V17.4496H12.0733ZM16.1463 17.4496V7.71716C16.1463 7.60889 16.2341 7.52108 16.3424 7.52108H18.1434C18.2517 7.52108 18.3395 7.60889 18.3395 7.71716V17.4496H16.1463ZM14.6808 5.4661C13.8671 6.78026 12.6362 7.9743 11.0732 8.84661C9.1293 9.93061 7.03228 10.3168 5.19652 10.0673C5.13009 10.0558 5.08252 9.99681 5.08538 9.92947C5.0882 9.86214 5.14064 9.80736 5.20777 9.80151C6.43444 9.67422 7.68354 9.2943 9.00687 8.55614C10.5519 7.69422 12.3514 5.9912 13.2597 4.51242L12.5139 4.01277C12.4713 3.98426 12.4484 3.93422 12.4546 3.88336C12.4608 3.83249 12.4951 3.78944 12.5433 3.77199L15.1071 2.84383C15.1464 2.82959 15.19 2.83426 15.2255 2.85638C15.2609 2.87853 15.2842 2.91575 15.2886 2.95728L15.5923 5.80865C15.5979 5.86116 15.5726 5.91218 15.5274 5.93944C15.4822 5.96673 15.4252 5.9654 15.3814 5.93599L14.6808 5.4661ZM6.68111 8.10336C6.1184 8.38065 5.48507 8.53642 4.81542 8.53642C2.4804 8.53642 0.587891 6.64395 0.587891 4.30983C0.587891 2.0803 2.31318 0.25426 4.50169 0.09375V4.30983C4.50169 4.36571 4.51664 4.42061 4.54495 4.46877L6.68111 8.10336ZM5.12915 0.09375C7.21373 0.24677 8.87848 1.91202 9.03067 3.99759L5.12915 3.99622V0.09375ZM9.03044 4.62504C8.93389 5.93438 8.24071 7.07798 7.22173 7.78493L5.36381 4.62375L9.03044 4.62504Z" fill="#F98E71"/>
</svg>
