<svg width="20" height="20" viewBox="0 0 20 20" fill="none" xmlns="http://www.w3.org/2000/svg">
<path fill-rule="evenodd" clip-rule="evenodd" d="M11.8721 3.51378C9.52023 6.98128 5.16086 8.10565 5.16086 8.10565C4.82648 8.19127 4.48586 7.9894 4.40023 7.65503C4.31461 7.32065 4.51648 6.98003 4.85086 6.8944C4.85086 6.8944 9.00211 5.84253 11.0315 2.51065L9.80211 2.50003C9.45711 2.4969 9.17961 2.2144 9.18273 1.8694C9.18586 1.5244 9.46836 1.2469 9.81336 1.25003L12.4884 1.27378C12.8296 1.27628 13.1052 1.5519 13.1077 1.89315L13.1309 4.50628C13.134 4.85128 12.8565 5.13378 12.5115 5.1369C12.1665 5.14003 11.884 4.86253 11.8809 4.51753L11.8721 3.51378ZM6.55898 18.75H3.75586C3.06523 18.75 2.50586 18.1906 2.50586 17.5V11.875C2.50586 11.1844 3.06523 10.625 3.75586 10.625H6.55898V18.75ZM7.80898 10.0219C7.80898 9.3194 8.37836 8.75002 9.08086 8.75002H10.879C11.5815 8.75002 12.1509 9.3194 12.1509 10.0219V18.75H7.80898V10.0219ZM13.4009 7.5219C13.4009 6.8194 13.9702 6.25003 14.6721 6.25003H16.2559C16.9465 6.25003 17.5059 6.8094 17.5059 7.50002V17.5C17.5059 18.1906 16.9465 18.75 16.2559 18.75H13.4009V7.5219Z" fill="#A577E5"/>
</svg>
