<svg width="25" height="24" viewBox="0 0 25 24" fill="none" xmlns="http://www.w3.org/2000/svg">
<path d="M4.70687 17.0194L3.50331 9.83981C3.32133 8.75428 3.23035 8.21152 3.52171 7.85576C3.81308 7.5 4.34859 7.5 5.41962 7.5H20.2484C21.3194 7.5 21.8549 7.5 22.1463 7.85576C22.4376 8.21152 22.3466 8.75428 22.1647 9.83981L20.9611 17.0194C20.5622 19.3991 20.3627 20.5889 19.5483 21.2945C18.734 22 17.56 22 15.2122 22H10.4558C8.10794 22 6.93401 22 6.11963 21.2945C5.30525 20.5889 5.10579 19.3991 4.70687 17.0194Z" stroke="#9B9A99" stroke-width="1.5"/>
<path d="M18.334 7.5C18.334 4.46243 15.8716 2 12.834 2C9.79641 2 7.33398 4.46243 7.33398 7.5" stroke="#9B9A99" stroke-width="1.5"/>
</svg>
