<svg width="20" height="19" viewBox="0 0 20 19" fill="none" xmlns="http://www.w3.org/2000/svg">
<path fill-rule="evenodd" clip-rule="evenodd" d="M1.01117 1.90366L0.8109 2.10393C0.688469 2.22636 0.489646 2.22636 0.367214 2.10393C0.244783 1.98146 0.244783 1.78268 0.367214 1.66025L1.10306 0.924402C1.22557 0.801892 1.42423 0.801892 1.54674 0.924402L2.28259 1.66025C2.40502 1.78268 2.40502 1.98146 2.28259 2.10393C2.16012 2.22636 1.96133 2.22636 1.8389 2.10393L1.63863 1.90366V17.5402H3.59031V14.092C3.59031 14.04 3.61098 13.9902 3.64772 13.9534C3.68451 13.9166 3.73439 13.896 3.78639 13.896H5.45843C5.51043 13.896 5.56031 13.9166 5.5971 13.9534C5.63384 13.9902 5.65451 14.04 5.65451 14.092V17.5402H7.42208V10.6106C7.42208 10.5023 7.50988 10.4145 7.61816 10.4145H9.28886C9.39717 10.4145 9.48494 10.5023 9.48494 10.6106V17.5402H11.2525V12.0171C11.2525 11.9088 11.3403 11.821 11.4486 11.821H13.1193C13.2276 11.821 13.3154 11.9088 13.3154 12.0171V17.5402H15.0843V7.9035C15.0843 7.8515 15.105 7.80162 15.1418 7.76483C15.1785 7.72809 15.2284 7.70742 15.2804 7.70742H16.9511C17.0594 7.70742 17.1472 7.79519 17.1472 7.9035V17.5402H19.4126C19.5858 17.5402 19.7263 17.6808 19.7263 17.8539C19.7263 18.0271 19.5858 18.1677 19.4126 18.1677H1.3249C1.15165 18.1677 1.01117 18.0272 1.01117 17.8539V1.90366ZM5.59941 9.1246C5.65894 9.25758 5.69208 9.40483 5.69208 9.55954C5.69208 10.1488 5.21161 10.6279 4.62239 10.6279C4.03321 10.6279 3.55274 10.1488 3.55274 9.55954C3.55274 8.97036 4.03321 8.48989 4.62239 8.48989C4.82941 8.48989 5.02298 8.54919 5.18702 8.65166L7.47706 6.65695C7.41761 6.52417 7.38451 6.3773 7.38451 6.22303C7.38451 5.63381 7.86502 5.15334 8.45286 5.15334C9.04204 5.15334 9.52255 5.63381 9.52255 6.22303C9.52255 6.28119 9.51784 6.33828 9.50878 6.39397L11.507 7.37942C11.7023 7.17252 11.9788 7.04307 12.2846 7.04307C12.4574 7.04307 12.6207 7.08436 12.7652 7.15762L15.182 4.63495C15.0959 4.48075 15.0467 4.30323 15.0467 4.11452C15.0467 3.52534 15.5259 3.04483 16.1151 3.04483C16.7043 3.04483 17.1848 3.52534 17.1848 4.11452C17.1848 4.70374 16.7043 5.18421 16.1151 5.18421C15.9423 5.18421 15.779 5.14291 15.6345 5.06966L13.2177 7.59232C13.3038 7.74652 13.353 7.92405 13.353 8.11275C13.353 8.7006 12.8738 9.18107 12.2846 9.18107C11.6954 9.18107 11.215 8.7006 11.215 8.11275C11.215 8.05456 11.2196 7.99746 11.2287 7.94177L9.22972 6.95597C9.03451 7.16221 8.75831 7.29134 8.45286 7.29134C8.24643 7.29134 8.05329 7.23213 7.88949 7.12977L5.59941 9.1246Z" fill="#F98E71"/>
</svg>
