<svg width="24" height="25" viewBox="0 0 24 25" fill="none" xmlns="http://www.w3.org/2000/svg">
<g clip-path="url(#clip0_3927_6850)">
<path d="M19.3445 16.7682C19.2423 16.658 19.0995 16.5945 18.9493 16.5925H15.2919V7.77819C15.2919 7.44903 15.2187 7.08325 14.9262 7.08325H9.07429C8.70319 7.12673 8.40525 7.40976 8.34281 7.77819V16.5925H5.05116C4.74818 16.5965 4.50582 16.8453 4.50981 17.1483C4.51177 17.2985 4.57527 17.4414 4.68546 17.5435L11.6345 24.3463C11.8324 24.5483 12.1566 24.5516 12.3586 24.3537C12.3611 24.3513 12.3636 24.3488 12.366 24.3463L19.3151 17.5435C19.5373 17.3375 19.5504 16.9904 19.3445 16.7682Z" fill="#3F9DFB"/>
<path d="M9.07402 5.98618H14.9259C15.2289 5.98618 15.4745 5.74053 15.4745 5.43755C15.4745 5.13456 15.2289 4.88892 14.9259 4.88892H9.07402C8.77104 4.88892 8.52539 5.13456 8.52539 5.43755C8.52539 5.74053 8.77104 5.98618 9.07402 5.98618Z" fill="#3F9DFB"/>
<path d="M9.07402 3.7916H14.9259C15.2289 3.7916 15.4745 3.54595 15.4745 3.24297C15.4745 2.93998 15.2289 2.69434 14.9259 2.69434H9.07402C8.77104 2.69434 8.52539 2.93998 8.52539 3.24297C8.52539 3.54595 8.77104 3.7916 9.07402 3.7916Z" fill="#3F9DFB"/>
<path d="M9.07402 1.59726H14.9259C15.2289 1.59726 15.4745 1.35161 15.4745 1.04863C15.4745 0.745648 15.2289 0.5 14.9259 0.5H9.07402C8.77104 0.5 8.52539 0.745648 8.52539 1.04863C8.52539 1.35168 8.77104 1.59726 9.07402 1.59726Z" fill="#3F9DFB"/>
</g>
<defs>
<clipPath id="clip0_3927_6850">
<rect width="24" height="24" fill="white" transform="translate(0 0.5)"/>
</clipPath>
</defs>
</svg>
