<svg width="18" height="19" viewBox="0 0 18 19" fill="none" xmlns="http://www.w3.org/2000/svg">
<path d="M0.553345 7.53613C0.553345 7.53613 3.68456 9.49856 3.6875 9.50024V5.30655L0.25 3.34229V7.00024C0.25 7.21966 0.365051 7.42321 0.553345 7.53613Z" fill="#F98E71"/>
<path d="M7.50693 2.7616C7.48686 2.74593 4.32219 0.839264 4.32219 0.839264C4.12383 0.720245 3.87724 0.720245 3.67888 0.839264C3.67888 0.839264 0.514206 2.74593 0.494141 2.7616L4.00053 4.76535L7.50693 2.7616Z" fill="#F98E71"/>
<path d="M4.3125 9.50024C4.31544 9.49856 7.44666 7.53613 7.44666 7.53613C7.63495 7.42321 7.75 7.21966 7.75 7.00024V3.34229L4.3125 5.30655V9.50024Z" fill="#F98E71"/>
<path d="M13.375 6.40674V8.87523H15.8435C15.6978 7.57495 14.6753 6.55242 13.375 6.40674Z" fill="#F98E71"/>
<path d="M12.75 9.18773V6.40674C11.3458 6.56406 10.25 7.74146 10.25 9.18773C10.25 10.741 11.5092 12.0002 13.0625 12.0002C14.5088 12.0002 15.6862 10.9045 15.8435 9.50023H13.0625C12.8898 9.50023 12.75 9.36046 12.75 9.18773Z" fill="#F98E71"/>
<path d="M17.125 4.5H8.375V7C8.375 7.4364 8.14246 7.84717 7.76801 8.07178C4.59967 10.0585 4 10.298 4 10.298C4 10.298 3.39857 10.0574 0.25 8.08364V17.625C0.25 17.9705 0.529846 18.25 0.875 18.25H17.125C17.4702 18.25 17.75 17.9705 17.75 17.625V5.125C17.75 4.77954 17.4702 4.5 17.125 4.5ZM2.75 17H1.5V14.1875C1.5 14.0149 1.63992 13.875 1.8125 13.875H2.4375C2.61008 13.875 2.75 14.0149 2.75 14.1875V17ZM4.625 17H3.375V12.9375C3.375 12.7649 3.51492 12.625 3.6875 12.625H4.3125C4.48508 12.625 4.625 12.7649 4.625 12.9375V17ZM6.5 17H5.25V11.6875C5.25 11.5149 5.38992 11.375 5.5625 11.375H6.1875C6.36008 11.375 6.5 11.5149 6.5 11.6875V17ZM8.375 17H7.125V10.4375C7.125 10.2649 7.26492 10.125 7.4375 10.125H8.0625C8.23508 10.125 8.375 10.2649 8.375 10.4375V17ZM10.25 17H9V12.9375C9 12.7649 9.13992 12.625 9.3125 12.625H9.9375C10.1101 12.625 10.25 12.7649 10.25 12.9375V17ZM12.125 17H10.875V14.1875C10.875 14.0149 11.0149 13.875 11.1875 13.875H11.8125C11.9851 13.875 12.125 14.0149 12.125 14.1875V17ZM13.0625 12.625C11.164 12.625 9.625 11.086 9.625 9.1875C9.625 7.289 11.164 5.75 13.0625 5.75C14.961 5.75 16.5 7.289 16.5 9.1875C16.5 11.086 14.961 12.625 13.0625 12.625Z" fill="#F98E71"/>
</svg>
