<svg width="21" height="20" viewBox="0 0 21 20" fill="none" xmlns="http://www.w3.org/2000/svg">
<path fill-rule="evenodd" clip-rule="evenodd" d="M18.507 6.875V16.875C18.507 17.3725 18.3096 17.8494 17.9577 18.2006C17.6059 18.5525 17.1289 18.75 16.6315 18.75H6.62844C6.13097 18.75 5.65404 18.5525 5.30215 18.2006C4.95026 17.8494 4.75289 17.3725 4.75289 16.875V12.4175C5.05745 12.4719 5.37094 12.5 5.69067 12.5C8.6237 12.5 11.0048 10.1194 11.0048 7.1875C11.0048 4.25563 8.6237 1.875 5.69067 1.875C5.52902 1.875 5.36914 1.8825 5.21195 1.89625C5.5558 1.50062 6.0631 1.25 6.62844 1.25H12.8803V5C12.8803 5.4975 13.0777 5.97438 13.4296 6.32563C13.7815 6.6775 14.2584 6.875 14.7559 6.875H18.507ZM8.50401 15.625V15C8.50401 14.655 8.22357 14.375 7.87883 14.375C7.53408 14.375 7.25364 14.655 7.25364 15V15.625C7.25364 15.97 7.53408 16.25 7.87883 16.25C8.22357 16.25 8.50401 15.97 8.50401 15.625ZM11.0048 15.625V13.125C11.0048 12.78 10.7243 12.5 10.3796 12.5C10.0348 12.5 9.75438 12.78 9.75438 13.125V15.625C9.75438 15.97 10.0348 16.25 10.3796 16.25C10.7243 16.25 11.0048 15.97 11.0048 15.625ZM13.5055 15.625V13.75C13.5055 13.405 13.2251 13.125 12.8803 13.125C12.5356 13.125 12.2551 13.405 12.2551 13.75V15.625C12.2551 15.97 12.5356 16.25 12.8803 16.25C13.2251 16.25 13.5055 15.97 13.5055 15.625ZM16.0063 15.625V11.25C16.0063 10.905 15.7258 10.625 15.3811 10.625C15.0363 10.625 14.7559 10.905 14.7559 11.25V15.625C14.7559 15.97 15.0363 16.25 15.3811 16.25C15.7258 16.25 16.0063 15.97 16.0063 15.625ZM14.1307 1.26187C14.5799 1.31312 14.9988 1.52563 15.306 1.86375L18.0194 4.84687C18.2221 5.07062 18.3668 5.3375 18.4436 5.625H14.7559C14.5898 5.625 14.4308 5.55938 14.3138 5.44188C14.1968 5.325 14.1307 5.16563 14.1307 5V1.26187ZM9.70615 7.8125C9.40517 9.75813 7.72075 11.25 5.69067 11.25C3.44804 11.25 1.62695 9.42937 1.62695 7.1875C1.62695 5.15812 3.11936 3.47375 5.06548 3.17313V6.5625C5.06548 7.25313 5.62547 7.8125 6.31586 7.8125H9.70615ZM6.31586 3.17313C8.05835 3.4425 9.43732 4.82063 9.70615 6.5625H6.31586V3.17313Z" fill="#3F9DFB"/>
</svg>
