<svg width="20" height="20" viewBox="0 0 20 20" fill="none" xmlns="http://www.w3.org/2000/svg">
<path fill-rule="evenodd" clip-rule="evenodd" d="M5.90286 6.60156H1.76379C0.794791 6.60156 0.00585938 7.39044 0.00585938 8.35938V12.1875C0.00585938 12.8607 0.393611 13.4659 0.980656 13.7596V19.4141C0.980656 19.7377 1.24297 20 1.56663 20H6.10002C6.42368 20 6.68599 19.7377 6.68599 19.4141V13.7596C7.27304 13.4659 7.66079 12.8607 7.66079 12.1875V8.35938C7.66079 7.39044 6.87186 6.60156 5.90286 6.60156Z" fill="#3C7478"/>
<path fill-rule="evenodd" clip-rule="evenodd" d="M11.6856 12.9668H16.8422C17.1658 12.9668 17.4282 12.7045 17.4282 12.3809V7.26367C17.4282 6.94019 17.1658 6.67773 16.8422 6.67773H14.8499V7.49957C14.8499 7.82321 14.5875 8.08551 14.2639 8.08551C13.9402 8.08551 13.6779 7.82321 13.6779 7.49957V6.67773H11.6856C11.3619 6.67773 11.0996 6.94019 11.0996 7.26367V12.3809C11.0996 12.7045 11.3619 12.9668 11.6856 12.9668Z" fill="#3C7478"/>
<path fill-rule="evenodd" clip-rule="evenodd" d="M7.19529 2.18048H6.63021V1.4946C6.63021 0.670624 5.95955 0 5.13552 0H2.68205C1.85817 0 1.1875 0.670624 1.1875 1.4946V2.99362C1.1875 4.49646 2.406 5.71487 3.90878 5.71487C5.28201 5.71487 6.43001 4.69376 6.60671 3.35236H7.19529C7.51895 3.35236 7.78126 3.09006 7.78126 2.76642C7.78126 2.44293 7.51895 2.18048 7.19529 2.18048Z" fill="#3C7478"/>
<path fill-rule="evenodd" clip-rule="evenodd" d="M13.0929 13.7109H11.6861V14.5328C11.6861 14.8563 11.4237 15.1187 11.1001 15.1187C10.7766 15.1187 10.5141 14.8563 10.5141 14.5328V13.7109H9.10746C8.7838 13.7109 8.52148 13.9732 8.52148 14.2969V19.4141C8.52148 19.7377 8.7838 20 9.10746 20H13.0929C13.4156 20 13.6788 19.7368 13.6788 19.4141V14.2969C13.6788 13.9742 13.4156 13.7109 13.0929 13.7109Z" fill="#3C7478"/>
<path fill-rule="evenodd" clip-rule="evenodd" d="M19.4195 13.7109H18.0136V14.5328C18.0136 14.8563 17.7511 15.1187 17.4276 15.1187C17.1039 15.1187 16.8416 14.8563 16.8416 14.5328V13.7109H15.4356C15.1128 13.7109 14.8496 13.9742 14.8496 14.2969V19.4141C14.8496 19.7368 15.1128 20 15.4356 20H19.4195C19.7431 20 20.0054 19.7377 20.0054 19.4141V14.2969C20.0054 13.9732 19.7431 13.7109 19.4195 13.7109Z" fill="#3C7478"/>
</svg>
