<svg width="18" height="20" viewBox="0 0 18 20" fill="none" xmlns="http://www.w3.org/2000/svg">
<path d="M15.7549 0C14.6109 0 13.6836 0.927344 13.6836 2.07129V8.25156H17.2402C17.5638 8.25156 17.8262 7.98922 17.8262 7.66563V2.07129C17.8262 0.927344 16.8988 0 15.7549 0Z" fill="#81B622"/>
<path d="M6.08441 14.7266C6.08441 11.187 8.96375 8.27176 12.5507 8.28152V2.32367C12.5507 1.43238 12.8862 0.618086 13.4373 0H3.10273C1.48789 0 0.173828 1.31406 0.173828 2.92891V19.4035C0.173828 19.9306 0.818633 20.1896 1.1832 19.8086L1.93281 19.0258L2.72461 19.818C2.95312 20.0465 3.32422 20.0465 3.55312 19.818L4.30352 19.068L5.06133 19.8195C5.28984 20.0461 5.6582 20.0461 5.88672 19.8195L6.65664 19.0562L7.42695 19.8195C7.65508 20.0461 8.02305 20.0461 8.25156 19.8199L8.40078 19.6723C6.94797 18.4576 6.08441 16.6616 6.08441 14.7266ZM4.91391 4.72656H6.07031V3.57016C6.07031 3.24656 6.33266 2.98422 6.65625 2.98422C6.97984 2.98422 7.24219 3.24656 7.24219 3.57016V4.72656H8.39859C8.72219 4.72656 8.98453 4.98891 8.98453 5.3125C8.98453 5.63609 8.72219 5.89844 8.39859 5.89844H7.24219V7.05484C7.24219 7.37844 6.97984 7.64078 6.65625 7.64078C6.33266 7.64078 6.07031 7.37844 6.07031 7.05484V5.89844H4.91391C4.59031 5.89844 4.32797 5.63609 4.32797 5.3125C4.32797 4.98891 4.59031 4.72656 4.91391 4.72656ZM3.14059 8.83008H7.08594C7.40953 8.83008 7.67188 9.09242 7.67188 9.41602C7.67188 9.73961 7.40953 10.002 7.08594 10.002H3.14059C2.81699 10.002 2.55465 9.73961 2.55465 9.41602C2.55465 9.09242 2.81699 8.83008 3.14059 8.83008ZM5.09566 14.6855H3.13668C2.81309 14.6855 2.55074 14.4232 2.55074 14.0996C2.55074 13.776 2.81309 13.5137 3.13668 13.5137H5.09566C5.41926 13.5137 5.6816 13.776 5.6816 14.0996C5.6816 14.4232 5.41926 14.6855 5.09566 14.6855ZM5.48633 12.3457H3.13859C2.815 12.3457 2.55266 12.0834 2.55266 11.7598C2.55266 11.4362 2.815 11.1738 3.13859 11.1738H5.48633C5.80992 11.1738 6.07227 11.4362 6.07227 11.7598C6.07227 12.0834 5.80992 12.3457 5.48633 12.3457Z" fill="#81B622"/>
<path d="M12.5293 9.45312C9.62152 9.45312 7.25586 11.8188 7.25586 14.7266C7.25586 17.6343 9.62152 20 12.5293 20C15.4371 20 17.8027 17.6343 17.8027 14.7266C17.8027 11.8188 15.4371 9.45312 12.5293 9.45312ZM13.1171 16.9832V17.0389C13.1171 17.3625 12.8547 17.6248 12.5311 17.6248C12.2075 17.6248 11.9452 17.3625 11.9452 17.0389V17.0289C11.6827 16.9664 11.4392 16.863 11.2461 16.7367C10.9753 16.5595 10.8994 16.1964 11.0766 15.9255C11.2537 15.6547 11.6169 15.5788 11.8877 15.756C12.1275 15.9129 12.5228 15.9725 12.7171 15.8811C12.843 15.8218 12.9404 15.6954 12.954 15.5736C12.983 15.3141 12.5765 15.1694 12.3338 15.0735C11.9666 14.9285 11.5095 14.7479 11.2441 14.2689C10.8659 13.5861 11.1971 12.6858 11.9452 12.3779V12.3484C11.9452 12.0248 12.2075 11.7625 12.5311 11.7625C12.8515 11.7625 13.1115 12.0198 13.1166 12.3389C13.3275 12.4048 13.5218 12.5103 13.6773 12.6538C13.9152 12.8732 13.9302 13.2439 13.7108 13.4818C13.4914 13.7197 13.1207 13.7346 12.8828 13.5152C12.7864 13.4263 12.4894 13.3904 12.3603 13.4771C12.2735 13.5354 12.2395 13.6473 12.2692 13.7009C12.3929 13.9243 13.041 14.0009 13.5314 14.3831C14.5333 15.1638 14.1847 16.5736 13.1171 16.9832Z" fill="#81B622"/>
</svg>
