<svg width="20" height="20" viewBox="0 0 20 20" fill="none" xmlns="http://www.w3.org/2000/svg">
<g clip-path="url(#clip0_4098_31399)">
<path d="M15.9961 4.14062H10.332C9.84664 4.14062 9.45312 4.53414 9.45312 5.01953C9.45312 5.50492 9.84664 5.89844 10.332 5.89844H15.9961C16.4815 5.89844 16.875 5.50492 16.875 5.01953C16.875 4.53414 16.4815 4.14062 15.9961 4.14062Z" fill="#A577E5"/>
<path d="M1.5625 18.197V18.9905C1.5625 19.3107 1.82207 19.5703 2.1423 19.5703H9.18582C9.50605 19.5703 9.76562 19.3107 9.76562 18.9905V18.197C9.76562 17.8768 9.50605 17.6172 9.18582 17.6172H2.1423C1.82207 17.6172 1.5625 17.8768 1.5625 18.197Z" fill="#A577E5"/>
<path d="M0 15.072V15.8655C0 16.1857 0.25957 16.4453 0.579805 16.4453H7.62332C7.94355 16.4453 8.20312 16.1857 8.20312 15.8655V15.072C8.20312 14.7518 7.94355 14.4922 7.62332 14.4922H0.579805C0.25957 14.4922 0 14.7518 0 15.072Z" fill="#A577E5"/>
<path d="M9.18582 11.3672H2.1423C1.82207 11.3672 1.5625 11.6268 1.5625 11.947V12.7405C1.5625 13.0607 1.82207 13.3203 2.1423 13.3203H9.18582C9.50605 13.3203 9.76562 13.0607 9.76562 12.7405V11.947C9.76562 11.6268 9.50605 11.3672 9.18582 11.3672Z" fill="#A577E5"/>
<path d="M12.3477 10.2862C12.3066 10.5041 12.3595 10.7072 12.4823 10.8036C12.5303 10.8412 12.5844 10.8781 12.6422 10.9143V9.81152C12.4716 9.93078 12.3787 10.1217 12.3477 10.2862Z" fill="#A577E5"/>
<path d="M13.6172 12.4014V14.0603C13.9165 13.8987 14.0943 13.6005 14.1419 13.3177C14.1759 13.1157 14.1897 12.6309 13.6172 12.4014Z" fill="#A577E5"/>
<path d="M19.9778 13.9036C19.8023 12.3365 19.289 10.7958 18.4935 9.44816C17.9656 8.55383 17.3291 7.75914 16.5937 7.07031H9.7418C8.80004 7.95523 8.01645 9.0152 7.43555 10.1953H9.18016C10.1494 10.1953 10.938 10.9839 10.938 11.9531V12.7344C10.938 13.6376 10.2531 14.3836 9.37547 14.4811V16.4564C10.1889 16.5468 10.8365 17.1943 10.9269 18.0079H16.2848C17.343 18.0079 18.3548 17.5551 19.0607 16.7658C19.7597 15.984 20.094 14.9408 19.9778 13.9036ZM15.1059 13.4794C15.0313 13.9227 14.8083 14.334 14.4779 14.6376C14.2308 14.8646 13.939 15.02 13.6182 15.0986V15.4688C13.6182 15.7384 13.3996 15.957 13.1299 15.957C12.8602 15.957 12.6416 15.7384 12.6416 15.4688V15.1442C12.2325 15.1104 11.8959 15.0025 11.4171 14.6893C11.1914 14.5416 11.1282 14.239 11.2758 14.0133C11.4234 13.7877 11.7261 13.7243 11.9518 13.872C12.2286 14.0531 12.4054 14.1304 12.6416 14.1618V12.0168C12.3177 11.8689 12.0765 11.7268 11.879 11.5719C11.4663 11.2482 11.278 10.6863 11.3875 10.1053C11.5069 9.47168 11.9477 8.96762 12.538 8.7898C12.5729 8.7793 12.6075 8.76969 12.6416 8.76078V8.4375C12.6416 8.16785 12.8602 7.94922 13.1299 7.94922C13.3996 7.94922 13.6182 8.16785 13.6182 8.4375V8.70664C14.1081 8.78852 14.4539 9.02875 14.6208 9.2202C14.7979 9.42352 14.7768 9.73195 14.5734 9.9091C14.3711 10.0854 14.0646 10.0653 13.8871 9.86465C13.8755 9.85281 13.7877 9.76777 13.6182 9.70934V11.3617C13.7105 11.3961 13.8027 11.4293 13.8932 11.4612C14.783 11.7759 15.2591 12.568 15.1059 13.4794Z" fill="#A577E5"/>
<path d="M10.7766 2.96871H15.5538C15.9824 2.55945 16.3032 2.05344 16.4907 1.49652C16.6403 1.05195 16.2257 0.625078 15.7738 0.750977C14.9996 0.966641 14.1616 0.882109 13.4373 0.497422C13.2673 0.407109 13.0631 0.407109 12.8931 0.497422C12.1688 0.882148 11.3308 0.96668 10.5566 0.750977C10.1047 0.625117 9.69007 1.05195 9.83972 1.49652C10.0272 2.05344 10.348 2.55945 10.7766 2.96871Z" fill="#A577E5"/>
</g>
<defs>
<clipPath id="clip0_4098_31399">
<rect width="20" height="20" fill="white"/>
</clipPath>
</defs>
</svg>
