<svg width="20" height="20" viewBox="0 0 20 20" fill="none" xmlns="http://www.w3.org/2000/svg">
<g clip-path="url(#clip0_4098_31416)">
<path fill-rule="evenodd" clip-rule="evenodd" d="M10.4688 10.6403V6.7959C10.4688 6.53715 10.2588 6.32715 10 6.32715C9.74125 6.32715 9.53125 6.53715 9.53125 6.7959V10.6403C9.53125 10.899 9.74125 11.109 10 11.109C10.2588 11.109 10.4688 10.899 10.4688 10.6403Z" fill="#FEA303"/>
<path fill-rule="evenodd" clip-rule="evenodd" d="M9.76596 10.2347L7.20283 11.7141C6.97908 11.8435 6.90221 12.1303 7.03158 12.3547C7.16033 12.5785 7.44783 12.6553 7.67158 12.526L10.2347 11.0466C10.4585 10.9172 10.5353 10.6303 10.4066 10.406C10.2772 10.1822 9.98971 10.1053 9.76596 10.2347Z" fill="#FEA303"/>
<path fill-rule="evenodd" clip-rule="evenodd" d="M12.6548 9.63199C11.6098 11.7226 9.84352 15.2551 8.87914 17.1839C8.66102 17.6195 8.68414 18.1376 8.94039 18.552C9.19664 18.9664 9.64977 19.2189 10.1366 19.2189H17.6885C18.176 19.2189 18.6285 18.9664 18.8848 18.552C19.141 18.1376 19.1641 17.6195 18.9466 17.1839C17.9823 15.2551 16.216 11.7226 15.1704 9.63199C14.9323 9.15574 14.4454 8.85449 13.9129 8.85449C13.3804 8.85449 12.8929 9.15574 12.6548 9.63199ZM13.8716 16.5289C14.1298 16.5289 14.3404 16.7389 14.3404 16.9976C14.3404 17.2564 14.1298 17.4664 13.8716 17.4664C13.6129 17.4664 13.4029 17.2564 13.4029 16.9976C13.4029 16.7389 13.6129 16.5289 13.8716 16.5289ZM13.4029 12.4664V15.5957C13.4029 15.8545 13.6129 16.0645 13.8716 16.0645C14.1298 16.0645 14.3404 15.8545 14.3404 15.5957V12.4664C14.3404 12.2076 14.1298 11.9976 13.8716 11.9976C13.6129 11.9976 13.4029 12.2076 13.4029 12.4664Z" fill="#FEA303"/>
<path fill-rule="evenodd" clip-rule="evenodd" d="M8.11602 18.9991C7.71477 18.316 7.68539 17.4748 8.04039 16.7641L8.43039 15.9841C5.77539 15.2891 3.81414 12.8716 3.81414 9.99977C3.81414 6.58602 6.58602 3.81414 9.99977 3.81414C13.2554 3.81414 15.9273 6.33539 16.1679 9.52977L18.3385 13.8716C18.8866 12.6948 19.1929 11.3829 19.1929 9.99977C19.1929 4.92602 15.0735 0.806641 9.99977 0.806641C4.92602 0.806641 0.806641 4.92602 0.806641 9.99977C0.806641 14.4279 3.94477 18.1291 8.11602 18.9991Z" fill="#FEA303"/>
</g>
<defs>
<clipPath id="clip0_4098_31416">
<rect width="20" height="20" fill="white"/>
</clipPath>
</defs>
</svg>
