<svg width="24" height="25" viewBox="0 0 24 25" fill="none" xmlns="http://www.w3.org/2000/svg">
<g clip-path="url(#clip0_3927_6913)">
<path d="M23.25 15.5C22.836 15.5 22.5 15.164 22.5 14.75C22.5 11.855 20.145 9.50003 17.25 9.50003H10V12.75C10 13.41 9.206 13.744 8.732 13.292L3.232 8.04203C3.084 7.90103 3 7.70503 3 7.50003C3 7.29503 3.084 7.09903 3.232 6.95803L8.732 1.70803C9.208 1.25403 10 1.59203 10 2.25003V5.50003H16.25C20.523 5.50003 24 8.97703 24 13.25V14.75C24 15.164 23.664 15.5 23.25 15.5Z" fill="#3F9DFB"/>
<path d="M14 22.75V19.5H7.75C3.477 19.5 0 16.023 0 11.75V10.25C0 9.836 0.336 9.5 0.75 9.5C1.164 9.5 1.5 9.836 1.5 10.25C1.5 13.145 3.855 15.5 6.75 15.5H14V12.25C14 11.593 14.791 11.252 15.268 11.708L20.768 16.958C20.916 17.099 21 17.295 21 17.5C21 17.705 20.916 17.901 20.768 18.042L15.268 23.292C14.791 23.746 14 23.408 14 22.75Z" fill="#3F9DFB"/>
</g>
<defs>
<clipPath id="clip0_3927_6913">
<rect width="24" height="24" fill="white" transform="translate(0 0.5)"/>
</clipPath>
</defs>
</svg>
