<svg width="25" height="24" viewBox="0 0 25 24" fill="none" xmlns="http://www.w3.org/2000/svg">
<path d="M20.94 18C21.6893 18 22.2853 17.5285 22.8205 16.8691C23.9159 15.5194 22.1173 14.4408 21.4314 13.9126C20.734 13.3756 19.9554 13.0714 19.166 13M18.166 11C19.5467 11 20.666 9.88071 20.666 8.5C20.666 7.11929 19.5467 6 18.166 6" stroke="#CD192F" stroke-width="1.5" stroke-linecap="round"/>
<path d="M3.39197 18C2.64267 18 2.04668 17.5285 1.51156 16.8691C0.416102 15.5194 2.21468 14.4408 2.90066 13.9126C3.59798 13.3756 4.37659 13.0714 5.16601 13M5.66601 11C4.2853 11 3.16601 9.88071 3.16601 8.5C3.16601 7.11929 4.2853 6 5.66601 6" stroke="#CD192F" stroke-width="1.5" stroke-linecap="round"/>
<path d="M8.24981 15.1112C7.22804 15.743 4.549 17.0331 6.18071 18.6474C6.97779 19.436 7.86553 20 8.98164 20H15.3504C16.4665 20 17.3542 19.436 18.1513 18.6474C19.783 17.0331 17.104 15.743 16.0822 15.1112C13.6861 13.6296 10.6459 13.6296 8.24981 15.1112Z" fill="#CD192F"/>
<path d="M15.666 7.5C15.666 9.433 14.099 11 12.166 11C10.233 11 8.66602 9.433 8.66602 7.5C8.66602 5.567 10.233 4 12.166 4C14.099 4 15.666 5.567 15.666 7.5Z" fill="#CD192F"/>
</svg>
