<svg width="21" height="21" viewBox="0 0 21 21" fill="none" xmlns="http://www.w3.org/2000/svg">
<path d="M16.0128 17.167H16.4213C17.3794 17.167 18.1416 16.7304 18.8259 16.12C20.5643 14.5692 16.4778 13.0003 15.0827 13.0003M13.416 4.7243C13.6053 4.68677 13.8018 4.66699 14.0033 4.66699C15.5199 4.66699 16.7493 5.78628 16.7493 7.16699C16.7493 8.5477 15.5199 9.66699 14.0033 9.66699C13.8018 9.66699 13.6053 9.64724 13.416 9.60966" stroke="#F03D3D" stroke-width="1.5" stroke-linecap="round"/>
<path d="M4.23443 13.926C3.25195 14.4525 0.675949 15.5276 2.2449 16.8728C3.01133 17.53 3.86493 18 4.9381 18H11.0619C12.1351 18 12.9887 17.53 13.7551 16.8728C15.3241 15.5276 12.7481 14.4525 11.7656 13.926C9.46167 12.6913 6.53833 12.6913 4.23443 13.926Z" stroke="#F03D3D" stroke-width="1.5"/>
<path d="M11.3327 6.75033C11.3327 8.59128 9.84027 10.0837 7.99935 10.0837C6.1584 10.0837 4.66602 8.59128 4.66602 6.75033C4.66602 4.90938 6.1584 3.41699 7.99935 3.41699C9.84027 3.41699 11.3327 4.90938 11.3327 6.75033Z" stroke="#F03D3D" stroke-width="1.5"/>
</svg>
