<svg width="17" height="17" viewBox="0 0 17 17" fill="none" xmlns="http://www.w3.org/2000/svg">
<path d="M6.34115 7.25016C8.1821 7.25016 9.67448 5.75778 9.67448 3.91683C9.67448 2.07588 8.1821 0.583496 6.34115 0.583496C4.5002 0.583496 3.00781 2.07588 3.00781 3.91683C3.00781 5.75778 4.5002 7.25016 6.34115 7.25016Z" fill="#CD192F"/>
<path d="M11.3815 10.317C11.3804 10.3824 11.3545 10.445 11.309 10.492L7.95065 13.867C7.71616 14.1012 7.58428 14.4189 7.58399 14.7503V16.167C7.58208 16.2339 7.55534 16.2978 7.50899 16.3462C7.487 16.3706 7.45996 16.39 7.42974 16.4029C7.39952 16.4159 7.36685 16.4221 7.33398 16.4212H3.00065C1.09232 16.4212 0.0839844 15.4212 0.0839844 13.5212C0.0839844 11.3962 1.28398 8.92115 4.66732 8.92115H8.00065C8.59914 8.89108 9.19756 8.98183 9.76022 9.188C10.3229 9.39417 10.8383 9.71152 11.2757 10.1212C11.3323 10.1724 11.3697 10.2415 11.3815 10.317Z" fill="#DE6574"/>
<path d="M14.699 13.0676L10.9173 16.8335H8.83398V14.7501L12.5998 10.9676L14.699 13.0676ZM16.0907 10.5101L15.1573 9.5768C15.0012 9.42159 14.79 9.33447 14.5698 9.33447C14.3497 9.33447 14.1385 9.42159 13.9823 9.5768L13.1832 10.3851L15.2823 12.4843L16.0907 11.6851C16.2459 11.529 16.333 11.3178 16.333 11.0976C16.333 10.8775 16.2459 10.6663 16.0907 10.5101Z" fill="#CD192F"/>
</svg>
