<svg width="21" height="21" viewBox="0 0 21 21" fill="none" xmlns="http://www.w3.org/2000/svg">
<path d="M2.88268 2.89752L13.3577 1.40168C13.4168 1.3932 13.4771 1.39753 13.5343 1.41438C13.5917 1.43122 13.6447 1.46018 13.6897 1.49929C13.7349 1.53842 13.7711 1.58678 13.7959 1.64111C13.8207 1.69543 13.8335 1.75446 13.8335 1.81418V19.1859C13.8335 19.2455 13.8207 19.3045 13.7959 19.3587C13.7712 19.413 13.7351 19.4613 13.6901 19.5004C13.645 19.5395 13.5921 19.5685 13.5349 19.5854C13.4777 19.6023 13.4176 19.6067 13.3585 19.5984L2.88185 18.1025C2.6832 18.0742 2.50143 17.9752 2.36992 17.8236C2.23842 17.6721 2.16602 17.4782 2.16602 17.2775V3.72252C2.16602 3.52186 2.23842 3.32794 2.36992 3.17638C2.50143 3.02483 2.68403 2.92581 2.88268 2.89752ZM14.6668 3.00002H18.0002C18.2212 3.00002 18.4332 3.08782 18.5894 3.24409C18.7458 3.40038 18.8335 3.61233 18.8335 3.83335V17.1667C18.8335 17.3877 18.7458 17.5996 18.5894 17.756C18.4332 17.9122 18.2212 18 18.0002 18H14.6668V3.00002ZM9.00017 10.5L11.3335 7.16668H9.3335L8.00018 9.07171L6.66685 7.16668H4.66685L7.00018 10.5L4.66685 13.8334H6.66685L8.00018 11.9284L9.3335 13.8334H11.3335L9.00017 10.5Z" fill="white"/>
</svg>
